  0
SECTION
  2
HEADER
  9
$ACADVER
  1
AC1014
  9
$HANDSEED
  5
FFFF
  9
$MEASUREMENT
 70
     1
  0
ENDSEC
  0
SECTION
  2
TABLES
  0
TABLE
  2
VPORT
  5
8
330
0
100
AcDbSymbolTable
 70
     4
  0
VPORT
  5
2E
330
8
100
AcDbSymbolTableRecord
100
AcDbViewportTableRecord
  2
*ACTIVE
 70
     0
 10
0.0
 20
0.0
 11
1.0
 21
1.0
 12
210.0
 22
148.5
 13
0.0
 23
0.0
 14
10.0
 24
10.0
 15
10.0
 25
10.0
 16
0.0
 26
0.0
 36
1.0
 17
0.0
 27
0.0
 37
0.0
 40
341.0
 41
1.24
 42
50.0
 43
0.0
 44
0.0
 50
0.0
 51
0.0
 71
     0
 72
   100
 73
     1
 74
     3
 75
     0
 76
     0
 77
     0
 78
     0
  0
ENDTAB
  0
TABLE
  2
LTYPE
  5
5
330
0
100
AcDbSymbolTable
 70
     1
  0
LTYPE
  5
14
330
5
100
AcDbSymbolTableRecord
100
AcDbLinetypeTableRecord
  2
BYBLOCK
 70
     0
  3

 72
    65
 73
     0
 40
0.0
  0
LTYPE
  5
15
330
5
100
AcDbSymbolTableRecord
100
AcDbLinetypeTableRecord
  2
BYLAYER
 70
     0
  3

 72
    65
 73
     0
 40
0.0
  0
LTYPE
  5
16
330
5
100
AcDbSymbolTableRecord
100
AcDbLinetypeTableRecord
  2
CONTINUOUS
 70
     0
  3
Solid line
 72
    65
 73
     0
 40
0.0
  0
ENDTAB
  0
TABLE
  2
LAYER
  5
2
100
AcDbSymbolTable
 70
2
  0
LAYER
  5
50
100
AcDbSymbolTableRecord
100
AcDbLayerTableRecord
  2
0
 70
0
  6
CONTINUOUS
  0
LAYER
  5
51
100
AcDbSymbolTableRecord
100
AcDbLayerTableRecord
  2
Bridge+Mark+%5BK%5D
 70
0
  6
CONTINUOUS
  0
ENDTAB
  0
TABLE
  2
STYLE
  5
3
330
0
100
AcDbSymbolTable
 70
     1
  0
STYLE
  5
11
330
3
100
AcDbSymbolTableRecord
100
AcDbTextStyleTableRecord
  2
STANDARD
 70
     0
 40
0.0
 41
1.0
 50
0.0
 71
     0
 42
2.5
  3
txt
  4

  0
ENDTAB
  0
TABLE
  2
VIEW
  5
6
330
0
100
AcDbSymbolTable
 70
     0
  0
ENDTAB
  0
TABLE
  2
UCS
  5
7
330
0
100
AcDbSymbolTable
 70
     0
  0
ENDTAB
  0
TABLE
  2
APPID
  5
9
330
0
100
AcDbSymbolTable
 70
     2
  0
APPID
  5
12
330
9
100
AcDbSymbolTableRecord
100
AcDbRegAppTableRecord
  2
ACAD
 70
     0
  0
ENDTAB
  0
TABLE
  2
DIMSTYLE
  5
A
330
0
100
AcDbSymbolTable
 70
     1
  0
DIMSTYLE
105
27
330
A
100
AcDbSymbolTableRecord
100
AcDbDimStyleTableRecord
  2
ISO-25
 70
     0
  3

  4

  5

  6

  7

 40
1.0
 41
2.5
 42
0.625
 43
3.75
 44
1.25
 45
0.0
 46
0.0
 47
0.0
 48
0.0
140
2.5
141
2.5
142
0.0
143
0.03937007874016
144
1.0
145
0.0
146
1.0
147
0.625
 71
     0
 72
     0
 73
     0
 74
     0
 75
     0
 76
     0
 77
     1
 78
     8
170
     0
171
     3
172
     1
173
     0
174
     0
175
     0
176
     0
177
     0
178
     0
270
     2
271
     2
272
     2
273
     2
274
     3
340
11
275
     0
280
     0
281
     0
282
     0
283
     0
284
     8
285
     0
286
     0
287
     3
288
     0
  0
ENDTAB
  0
TABLE
  2
BLOCK_RECORD
  5
1
330
0
100
AcDbSymbolTable
 70
     1
  0
BLOCK_RECORD
  5
1F
330
1
100
AcDbSymbolTableRecord
100
AcDbBlockTableRecord
  2
*MODEL_SPACE
  0
BLOCK_RECORD
  5
1B
330
1
100
AcDbSymbolTableRecord
100
AcDbBlockTableRecord
  2
*PAPER_SPACE
  0
ENDTAB
  0
ENDSEC
  0
SECTION
  2
BLOCKS
  0
BLOCK
  5
20
330
1F
100
AcDbEntity
  8
0
100
AcDbBlockBegin
  2
*MODEL_SPACE
 70
     0
 10
0.0
 20
0.0
 30
0.0
  3
*MODEL_SPACE
  1

  0
ENDBLK
  5
21
330
1F
100
AcDbEntity
  8
0
100
AcDbBlockEnd
  0
BLOCK
  5
1C
330
1B
100
AcDbEntity
 67
     1
  8
0
100
AcDbBlockBegin
  2
*PAPER_SPACE
  1

  0
ENDBLK
  5
1D
330
1B
100
AcDbEntity
 67
     1
  8
0
100
AcDbBlockEnd
  0
ENDSEC
  0
SECTION
  2
ENTITIES
  0
LWPOLYLINE
  5
100
100
AcDbEntity
  8
Bridge+Mark+%5BK%5D
 62
7
100
AcDbPolyline
 90
49
 70
0
 10
301.169900
 20
41.027300
 30
0.0
 10
300.906001
 20
42.069183
 30
0.0
 10
300.633330
 20
43.107556
 30
0.0
 10
300.351928
 20
44.142374
 30
0.0
 10
300.061837
 20
45.173597
 30
0.0
 10
299.763098
 20
46.201181
 30
0.0
 10
299.455752
 20
47.225083
 30
0.0
 10
299.139838
 20
48.245262
 30
0.0
 10
298.815400
 20
49.261675
 30
0.0
 10
298.482477
 20
50.274279
 30
0.0
 10
298.141111
 20
51.283032
 30
0.0
 10
297.791342
 20
52.287892
 30
0.0
 10
297.433212
 20
53.288816
 30
0.0
 10
297.066762
 20
54.285761
 30
0.0
 10
296.692033
 20
55.278685
 30
0.0
 10
296.309065
 20
56.267545
 30
0.0
 10
295.917900
 20
57.252300
 30
0.0
 10
297.153900
 20
57.252300
 30
0.0
 10
298.389900
 20
57.252300
 30
0.0
 10
299.625900
 20
57.252300
 30
0.0
 10
300.861900
 20
57.252300
 30
0.0
 10
302.097900
 20
57.252300
 30
0.0
 10
303.333900
 20
57.252300
 30
0.0
 10
304.569900
 20
57.252300
 30
0.0
 10
305.805900
 20
57.252300
 30
0.0
 10
307.041900
 20
57.252300
 30
0.0
 10
308.277900
 20
57.252300
 30
0.0
 10
309.513900
 20
57.252300
 30
0.0
 10
310.749900
 20
57.252300
 30
0.0
 10
311.985900
 20
57.252300
 30
0.0
 10
313.221900
 20
57.252300
 30
0.0
 10
314.457900
 20
57.252300
 30
0.0
 10
315.693900
 20
57.252300
 30
0.0
 10
314.617232
 20
56.406742
 30
0.0
 10
313.561021
 20
55.536837
 30
0.0
 10
312.525711
 20
54.642988
 30
0.0
 10
311.511744
 20
53.725597
 30
0.0
 10
310.519562
 20
52.785067
 30
0.0
 10
309.549607
 20
51.821802
 30
0.0
 10
308.602322
 20
50.836204
 30
0.0
 10
307.678150
 20
49.828675
 30
0.0
 10
306.777532
 20
48.799619
 30
0.0
 10
305.900912
 20
47.749439
 30
0.0
 10
305.048731
 20
46.678537
 30
0.0
 10
304.221431
 20
45.587316
 30
0.0
 10
303.419456
 20
44.476179
 30
0.0
 10
302.643248
 20
43.345529
 30
0.0
 10
301.893248
 20
42.195768
 30
0.0
 10
301.169900
 20
41.027300
 30
0.0
  0
LWPOLYLINE
  5
101
100
AcDbEntity
  8
Bridge+Mark+%5BK%5D
 62
7
100
AcDbPolyline
 90
49
 70
0
 10
267.131900
 20
69.254300
 30
0.0
 10
267.131900
 20
70.075863
 30
0.0
 10
267.131900
 20
70.897425
 30
0.0
 10
267.131900
 20
71.718987
 30
0.0
 10
267.131900
 20
72.540550
 30
0.0
 10
267.131900
 20
73.362112
 30
0.0
 10
267.131900
 20
74.183675
 30
0.0
 10
267.131900
 20
75.005238
 30
0.0
 10
267.131900
 20
75.826800
 30
0.0
 10
267.131900
 20
76.648362
 30
0.0
 10
267.131900
 20
77.469925
 30
0.0
 10
267.131900
 20
78.291488
 30
0.0
 10
267.131900
 20
79.113050
 30
0.0
 10
267.131900
 20
79.934613
 30
0.0
 10
267.131900
 20
80.756175
 30
0.0
 10
267.131900
 20
81.577737
 30
0.0
 10
267.131900
 20
82.399300
 30
0.0
 10
267.771936
 20
81.619577
 30
0.0
 10
268.405019
 20
80.834064
 30
0.0
 10
269.031109
 20
80.042805
 30
0.0
 10
269.650166
 20
79.245847
 30
0.0
 10
270.262150
 20
78.443234
 30
0.0
 10
270.867023
 20
77.635013
 30
0.0
 10
271.464744
 20
76.821228
 30
0.0
 10
272.055275
 20
76.001925
 30
0.0
 10
272.638575
 20
75.177149
 30
0.0
 10
273.214605
 20
74.346946
 30
0.0
 10
273.783326
 20
73.511362
 30
0.0
 10
274.344697
 20
72.670441
 30
0.0
 10
274.898680
 20
71.824228
 30
0.0
 10
275.445234
 20
70.972771
 30
0.0
 10
275.984321
 20
70.116113
 30
0.0
 10
276.515900
 20
69.254300
 30
0.0
 10
275.929400
 20
69.254300
 30
0.0
 10
275.342900
 20
69.254300
 30
0.0
 10
274.756400
 20
69.254300
 30
0.0
 10
274.169900
 20
69.254300
 30
0.0
 10
273.583400
 20
69.254300
 30
0.0
 10
272.996900
 20
69.254300
 30
0.0
 10
272.410400
 20
69.254300
 30
0.0
 10
271.823900
 20
69.254300
 30
0.0
 10
271.237400
 20
69.254300
 30
0.0
 10
270.650900
 20
69.254300
 30
0.0
 10
270.064400
 20
69.254300
 30
0.0
 10
269.477900
 20
69.254300
 30
0.0
 10
268.891400
 20
69.254300
 30
0.0
 10
268.304900
 20
69.254300
 30
0.0
 10
267.718400
 20
69.254300
 30
0.0
 10
267.131900
 20
69.254300
 30
0.0
  0
LWPOLYLINE
  5
102
100
AcDbEntity
  8
Bridge+Mark+%5BK%5D
 62
7
100
AcDbPolyline
 90
113
 70
0
 10
101.642900
 20
90.197300
 30
0.0
 10
102.451900
 20
90.997740
 30
0.0
 10
103.268980
 20
91.789900
 30
0.0
 10
104.094070
 20
92.573724
 30
0.0
 10
104.927070
 20
93.349159
 30
0.0
 10
105.767920
 20
94.116151
 30
0.0
 10
106.616540
 20
94.874646
 30
0.0
 10
107.472850
 20
95.624588
 30
0.0
 10
108.336780
 20
96.365925
 30
0.0
 10
109.208230
 20
97.098602
 30
0.0
 10
110.087150
 20
97.822564
 30
0.0
 10
110.973440
 20
98.537757
 30
0.0
 10
111.867040
 20
99.244128
 30
0.0
 10
112.767860
 20
99.941622
 30
0.0
 10
113.675830
 20
100.630185
 30
0.0
 10
114.590870
 20
101.309762
 30
0.0
 10
115.512900
 20
101.980300
 30
0.0
 10
115.514900
 20
101.576237
 30
0.0
 10
115.516900
 20
101.172175
 30
0.0
 10
115.518900
 20
100.768112
 30
0.0
 10
115.520900
 20
100.364050
 30
0.0
 10
115.522900
 20
99.959987
 30
0.0
 10
115.524900
 20
99.555925
 30
0.0
 10
115.526900
 20
99.151862
 30
0.0
 10
115.528900
 20
98.747800
 30
0.0
 10
115.530900
 20
98.343737
 30
0.0
 10
115.532900
 20
97.939675
 30
0.0
 10
115.534900
 20
97.535613
 30
0.0
 10
115.536900
 20
97.131550
 30
0.0
 10
115.538900
 20
96.727487
 30
0.0
 10
115.540900
 20
96.323425
 30
0.0
 10
115.542900
 20
95.919362
 30
0.0
 10
115.544900
 20
95.515300
 30
0.0
 10
114.260840
 20
94.221050
 30
0.0
 10
112.976770
 20
92.926800
 30
0.0
 10
111.692710
 20
91.632550
 30
0.0
 10
110.408650
 20
90.338300
 30
0.0
 10
109.124590
 20
89.044050
 30
0.0
 10
107.840530
 20
87.749800
 30
0.0
 10
106.556460
 20
86.455550
 30
0.0
 10
105.272400
 20
85.161300
 30
0.0
 10
103.988340
 20
83.867050
 30
0.0
 10
102.704280
 20
82.572800
 30
0.0
 10
101.420210
 20
81.278550
 30
0.0
 10
100.136150
 20
79.984300
 30
0.0
 10
98.852090
 20
78.690050
 30
0.0
 10
97.568030
 20
77.395800
 30
0.0
 10
96.283960
 20
76.101550
 30
0.0
 10
94.999900
 20
74.807300
 30
0.0
 10
95.002900
 20
74.804500
 30
0.0
 10
95.005900
 20
74.801700
 30
0.0
 10
95.008900
 20
74.798900
 30
0.0
 10
95.011900
 20
74.796100
 30
0.0
 10
95.014900
 20
74.793300
 30
0.0
 10
95.017900
 20
74.790500
 30
0.0
 10
95.020900
 20
74.787700
 30
0.0
 10
95.023900
 20
74.784900
 30
0.0
 10
95.026900
 20
74.782100
 30
0.0
 10
95.029900
 20
74.779300
 30
0.0
 10
95.032900
 20
74.776500
 30
0.0
 10
95.035900
 20
74.773700
 30
0.0
 10
95.038900
 20
74.770900
 30
0.0
 10
95.041900
 20
74.768100
 30
0.0
 10
95.044900
 20
74.765300
 30
0.0
 10
95.047900
 20
74.762500
 30
0.0
 10
95.047900
 20
74.418250
 30
0.0
 10
95.047900
 20
74.074000
 30
0.0
 10
95.047900
 20
73.729750
 30
0.0
 10
95.047900
 20
73.385500
 30
0.0
 10
95.047900
 20
73.041250
 30
0.0
 10
95.047900
 20
72.697000
 30
0.0
 10
95.047900
 20
72.352750
 30
0.0
 10
95.047900
 20
72.008500
 30
0.0
 10
95.047900
 20
71.664250
 30
0.0
 10
95.047900
 20
71.320000
 30
0.0
 10
95.047900
 20
70.975750
 30
0.0
 10
95.047900
 20
70.631500
 30
0.0
 10
95.047900
 20
70.287250
 30
0.0
 10
95.047900
 20
69.943000
 30
0.0
 10
95.047900
 20
69.598750
 30
0.0
 10
95.047900
 20
69.254500
 30
0.0
 10
94.429960
 20
69.254500
 30
0.0
 10
93.812030
 20
69.254500
 30
0.0
 10
93.194090
 20
69.254500
 30
0.0
 10
92.576150
 20
69.254500
 30
0.0
 10
91.958210
 20
69.254500
 30
0.0
 10
91.340270
 20
69.254500
 30
0.0
 10
90.722340
 20
69.254500
 30
0.0
 10
90.104400
 20
69.254500
 30
0.0
 10
89.486460
 20
69.254500
 30
0.0
 10
88.868520
 20
69.254500
 30
0.0
 10
88.250590
 20
69.254500
 30
0.0
 10
87.632650
 20
69.254500
 30
0.0
 10
87.014710
 20
69.254500
 30
0.0
 10
86.396770
 20
69.254500
 30
0.0
 10
85.778840
 20
69.254500
 30
0.0
 10
85.160900
 20
69.254500
 30
0.0
 10
86.043870
 20
70.677168
 30
0.0
 10
86.947410
 20
72.085656
 30
0.0
 10
87.871300
 20
73.479754
 30
0.0
 10
88.815350
 20
74.859250
 30
0.0
 10
89.779350
 20
76.223934
 30
0.0
 10
90.763100
 20
77.573594
 30
0.0
 10
91.766390
 20
78.908020
 30
0.0
 10
92.789020
 20
80.227000
 30
0.0
 10
93.830790
 20
81.530324
 30
0.0
 10
94.891500
 20
82.817781
 30
0.0
 10
95.970930
 20
84.089160
 30
0.0
 10
97.068880
 20
85.344250
 30
0.0
 10
98.185160
 20
86.582840
 30
0.0
 10
99.319560
 20
87.804719
 30
0.0
 10
100.471880
 20
89.009676
 30
0.0
 10
101.641900
 20
90.197500
 30
0.0
  0
LWPOLYLINE
  5
103
100
AcDbEntity
  8
Bridge+Mark+%5BK%5D
 62
7
100
AcDbPolyline
 90
49
 70
0
 10
60.579900
 20
41.323500
 30
0.0
 10
59.861520
 20
42.469154
 30
0.0
 10
59.117400
 20
43.596607
 30
0.0
 10
58.347980
 20
44.705472
 30
0.0
 10
57.553670
 20
45.795359
 30
0.0
 10
56.734890
 20
46.865882
 30
0.0
 10
55.892080
 20
47.916650
 30
0.0
 10
55.025650
 20
48.947278
 30
0.0
 10
54.136020
 20
49.957375
 30
0.0
 10
53.223630
 20
50.946554
 30
0.0
 10
52.288890
 20
51.914428
 30
0.0
 10
51.332230
 20
52.860607
 30
0.0
 10
50.354070
 20
53.784703
 30
0.0
 10
49.354830
 20
54.686329
 30
0.0
 10
48.334940
 20
55.565096
 30
0.0
 10
47.294830
 20
56.420615
 30
0.0
 10
46.234900
 20
57.252500
 30
0.0
 10
47.455210
 20
57.252500
 30
0.0
 10
48.675520
 20
57.252500
 30
0.0
 10
49.895840
 20
57.252500
 30
0.0
 10
51.116150
 20
57.252500
 30
0.0
 10
52.336460
 20
57.252500
 30
0.0
 10
53.556770
 20
57.252500
 30
0.0
 10
54.777090
 20
57.252500
 30
0.0
 10
55.997400
 20
57.252500
 30
0.0
 10
57.217710
 20
57.252500
 30
0.0
 10
58.438020
 20
57.252500
 30
0.0
 10
59.658340
 20
57.252500
 30
0.0
 10
60.878650
 20
57.252500
 30
0.0
 10
62.098960
 20
57.252500
 30
0.0
 10
63.319270
 20
57.252500
 30
0.0
 10
64.539590
 20
57.252500
 30
0.0
 10
65.759900
 20
57.252500
 30
0.0
 10
65.375520
 20
56.285264
 30
0.0
 10
64.999030
 20
55.314080
 30
0.0
 10
64.630480
 20
54.338985
 30
0.0
 10
64.269900
 20
53.360016
 30
0.0
 10
63.917340
 20
52.377208
 30
0.0
 10
63.572830
 20
51.390600
 30
0.0
 10
63.236420
 20
50.400226
 30
0.0
 10
62.908150
 20
49.406125
 30
0.0
 10
62.588060
 20
48.408332
 30
0.0
 10
62.276190
 20
47.406885
 30
0.0
 10
61.972580
 20
46.401819
 30
0.0
 10
61.677280
 20
45.393172
 30
0.0
 10
61.390310
 20
44.380980
 30
0.0
 10
61.111740
 20
43.365279
 30
0.0
 10
60.841580
 20
42.346107
 30
0.0
 10
60.580900
 20
41.323300
 30
0.0
  0
LWPOLYLINE
  5
104
100
AcDbEntity
  8
Bridge+Mark+%5BK%5D
 62
7
100
AcDbPolyline
 90
97
 70
0
 10
245.602900
 20
90.634300
 30
0.0
 10
245.602900
 20
91.368862
 30
0.0
 10
245.602900
 20
92.103425
 30
0.0
 10
245.602900
 20
92.837987
 30
0.0
 10
245.602900
 20
93.572550
 30
0.0
 10
245.602900
 20
94.307113
 30
0.0
 10
245.602900
 20
95.041675
 30
0.0
 10
245.602900
 20
95.776237
 30
0.0
 10
245.602900
 20
96.510800
 30
0.0
 10
245.602900
 20
97.245363
 30
0.0
 10
245.602900
 20
97.979925
 30
0.0
 10
245.602900
 20
98.714488
 30
0.0
 10
245.602900
 20
99.449050
 30
0.0
 10
245.602900
 20
100.183612
 30
0.0
 10
245.602900
 20
100.918175
 30
0.0
 10
245.602900
 20
101.652738
 30
0.0
 10
245.602900
 20
102.387300
 30
0.0
 10
246.500150
 20
101.743344
 30
0.0
 10
247.390740
 20
101.090654
 30
0.0
 10
248.274621
 20
100.429306
 30
0.0
 10
249.151744
 20
99.759378
 30
0.0
 10
250.022058
 20
99.080949
 30
0.0
 10
250.885513
 20
98.394095
 30
0.0
 10
251.742061
 20
97.698894
 30
0.0
 10
252.591650
 20
96.995425
 30
0.0
 10
253.434232
 20
96.283764
 30
0.0
 10
254.269755
 20
95.563989
 30
0.0
 10
255.098172
 20
94.836179
 30
0.0
 10
255.919431
 20
94.100409
 30
0.0
 10
256.733483
 20
93.356759
 30
0.0
 10
257.540279
 20
92.605306
 30
0.0
 10
258.339768
 20
91.846127
 30
0.0
 10
259.131900
 20
91.079300
 30
0.0
 10
259.131900
 20
89.767800
 30
0.0
 10
259.131900
 20
88.456300
 30
0.0
 10
259.131900
 20
87.144800
 30
0.0
 10
259.131900
 20
85.833300
 30
0.0
 10
259.131900
 20
84.521800
 30
0.0
 10
259.131900
 20
83.210300
 30
0.0
 10
259.131900
 20
81.898800
 30
0.0
 10
259.131900
 20
80.587300
 30
0.0
 10
259.131900
 20
79.275800
 30
0.0
 10
259.131900
 20
77.964300
 30
0.0
 10
259.131900
 20
76.652800
 30
0.0
 10
259.131900
 20
75.341300
 30
0.0
 10
259.131900
 20
74.029800
 30
0.0
 10
259.131900
 20
72.718300
 30
0.0
 10
259.131900
 20
71.406800
 30
0.0
 10
259.131900
 20
70.095300
 30
0.0
 10
258.521213
 20
70.705987
 30
0.0
 10
257.910525
 20
71.316675
 30
0.0
 10
257.299837
 20
71.927362
 30
0.0
 10
256.689150
 20
72.538050
 30
0.0
 10
256.078463
 20
73.148737
 30
0.0
 10
255.467775
 20
73.759425
 30
0.0
 10
254.857087
 20
74.370112
 30
0.0
 10
254.246400
 20
74.980800
 30
0.0
 10
253.635712
 20
75.591488
 30
0.0
 10
253.025025
 20
76.202175
 30
0.0
 10
252.414337
 20
76.812862
 30
0.0
 10
251.803650
 20
77.423550
 30
0.0
 10
251.192962
 20
78.034238
 30
0.0
 10
250.582275
 20
78.644925
 30
0.0
 10
249.971587
 20
79.255612
 30
0.0
 10
249.360900
 20
79.866300
 30
0.0
 10
249.444810
 20
80.061617
 30
0.0
 10
249.523990
 20
80.259400
 30
0.0
 10
249.598340
 20
80.459581
 30
0.0
 10
249.667770
 20
80.662097
 30
0.0
 10
249.732180
 20
80.866880
 30
0.0
 10
249.791490
 20
81.073864
 30
0.0
 10
249.845590
 20
81.282985
 30
0.0
 10
249.894400
 20
81.494175
 30
0.0
 10
249.937810
 20
81.707369
 30
0.0
 10
249.975740
 20
81.922501
 30
0.0
 10
250.008090
 20
82.139505
 30
0.0
 10
250.034770
 20
82.358316
 30
0.0
 10
250.055680
 20
82.578866
 30
0.0
 10
250.070730
 20
82.801091
 30
0.0
 10
250.079830
 20
83.024924
 30
0.0
 10
250.082930
 20
83.250300
 30
0.0
 10
250.061850
 20
83.847100
 30
0.0
 10
249.999570
 20
84.432437
 30
0.0
 10
249.897520
 20
85.004900
 30
0.0
 10
249.757130
 20
85.563081
 30
0.0
 10
249.579833
 20
86.105571
 30
0.0
 10
249.367058
 20
86.630960
 30
0.0
 10
249.120237
 20
87.137840
 30
0.0
 10
248.840802
 20
87.624800
 30
0.0
 10
248.530183
 20
88.090432
 30
0.0
 10
248.189812
 20
88.533327
 30
0.0
 10
247.821119
 20
88.952076
 30
0.0
 10
247.425536
 20
89.345269
 30
0.0
 10
247.004495
 20
89.711497
 30
0.0
 10
246.559425
 20
90.049351
 30
0.0
 10
246.091759
 20
90.357422
 30
0.0
 10
245.602900
 20
90.634300
 30
0.0
  0
LWPOLYLINE
  5
105
100
AcDbEntity
  8
Bridge+Mark+%5BK%5D
 62
7
100
AcDbPolyline
 90
145
 70
0
 10
226.108900
 20
82.846300
 30
0.0
 10
226.108900
 20
84.760238
 30
0.0
 10
226.108900
 20
86.674175
 30
0.0
 10
226.108900
 20
88.588112
 30
0.0
 10
226.108900
 20
90.502050
 30
0.0
 10
226.108900
 20
92.415988
 30
0.0
 10
226.108900
 20
94.329925
 30
0.0
 10
226.108900
 20
96.243863
 30
0.0
 10
226.108900
 20
98.157800
 30
0.0
 10
226.108900
 20
100.071737
 30
0.0
 10
226.108900
 20
101.985675
 30
0.0
 10
226.108900
 20
103.899612
 30
0.0
 10
226.108900
 20
105.813550
 30
0.0
 10
226.108900
 20
107.727487
 30
0.0
 10
226.108900
 20
109.641425
 30
0.0
 10
226.108900
 20
111.555363
 30
0.0
 10
226.108900
 20
113.469300
 30
0.0
 10
226.849416
 20
113.138389
 30
0.0
 10
227.587076
 20
112.802296
 30
0.0
 10
228.321858
 20
112.461041
 30
0.0
 10
229.053744
 20
112.114644
 30
0.0
 10
229.782711
 20
111.763126
 30
0.0
 10
230.508740
 20
111.406507
 30
0.0
 10
231.231810
 20
111.044808
 30
0.0
 10
231.951900
 20
110.678050
 30
0.0
 10
232.668990
 20
110.306253
 30
0.0
 10
233.383060
 20
109.929437
 30
0.0
 10
234.094089
 20
109.547623
 30
0.0
 10
234.802056
 20
109.160831
 30
0.0
 10
235.506942
 20
108.769083
 30
0.0
 10
236.208724
 20
108.372398
 30
0.0
 10
236.907384
 20
107.970797
 30
0.0
 10
237.602900
 20
107.564300
 30
0.0
 10
237.602900
 20
106.495925
 30
0.0
 10
237.602900
 20
105.427550
 30
0.0
 10
237.602900
 20
104.359175
 30
0.0
 10
237.602900
 20
103.290800
 30
0.0
 10
237.602900
 20
102.222425
 30
0.0
 10
237.602900
 20
101.154050
 30
0.0
 10
237.602900
 20
100.085675
 30
0.0
 10
237.602900
 20
99.017300
 30
0.0
 10
237.602900
 20
97.948925
 30
0.0
 10
237.602900
 20
96.880550
 30
0.0
 10
237.602900
 20
95.812175
 30
0.0
 10
237.602900
 20
94.743800
 30
0.0
 10
237.602900
 20
93.675425
 30
0.0
 10
237.602900
 20
92.607050
 30
0.0
 10
237.602900
 20
91.538675
 30
0.0
 10
237.602900
 20
90.470300
 30
0.0
 10
237.144067
 20
90.186024
 30
0.0
 10
236.705546
 20
89.873654
 30
0.0
 10
236.288621
 20
89.534438
 30
0.0
 10
235.894572
 20
89.169628
 30
0.0
 10
235.524681
 20
88.780472
 30
0.0
 10
235.180230
 20
88.368220
 30
0.0
 10
234.862501
 20
87.934121
 30
0.0
 10
234.572775
 20
87.479425
 30
0.0
 10
234.312334
 20
87.005381
 30
0.0
 10
234.082461
 20
86.513239
 30
0.0
 10
233.884435
 20
86.004249
 30
0.0
 10
233.719541
 20
85.479659
 30
0.0
 10
233.589058
 20
84.940720
 30
0.0
 10
233.494268
 20
84.388681
 30
0.0
 10
233.436458
 20
83.824791
 30
0.0
 10
233.416898
 20
83.250300
 30
0.0
 10
233.459938
 20
82.398165
 30
0.0
 10
233.586249
 20
81.570677
 30
0.0
 10
233.791640
 20
80.772019
 30
0.0
 10
234.071919
 20
80.006378
 30
0.0
 10
234.422891
 20
79.277938
 30
0.0
 10
234.840362
 20
78.590884
 30
0.0
 10
235.320139
 20
77.949401
 30
0.0
 10
235.858028
 20
77.357675
 30
0.0
 10
236.449835
 20
76.819890
 30
0.0
 10
237.091366
 20
76.340232
 30
0.0
 10
237.778427
 20
75.922885
 30
0.0
 10
238.506825
 20
75.572034
 30
0.0
 10
239.272365
 20
75.291866
 30
0.0
 10
240.070854
 20
75.086564
 30
0.0
 10
240.898098
 20
74.960313
 30
0.0
 10
241.749900
 20
74.917300
 30
0.0
 10
241.823650
 20
74.917717
 30
0.0
 10
241.897150
 20
74.918917
 30
0.0
 10
241.970410
 20
74.920917
 30
0.0
 10
242.043450
 20
74.923717
 30
0.0
 10
242.116270
 20
74.927217
 30
0.0
 10
242.188880
 20
74.931417
 30
0.0
 10
242.261300
 20
74.936317
 30
0.0
 10
242.333530
 20
74.941817
 30
0.0
 10
242.405580
 20
74.948017
 30
0.0
 10
242.477470
 20
74.954817
 30
0.0
 10
242.549200
 20
74.962117
 30
0.0
 10
242.620790
 20
74.970017
 30
0.0
 10
242.692240
 20
74.978417
 30
0.0
 10
242.763570
 20
74.987317
 30
0.0
 10
242.834790
 20
74.996617
 30
0.0
 10
242.905900
 20
75.006317
 30
0.0
 10
243.265462
 20
74.646817
 30
0.0
 10
243.625025
 20
74.287317
 30
0.0
 10
243.984587
 20
73.927817
 30
0.0
 10
244.344150
 20
73.568317
 30
0.0
 10
244.703713
 20
73.208817
 30
0.0
 10
245.063275
 20
72.849317
 30
0.0
 10
245.422838
 20
72.489817
 30
0.0
 10
245.782400
 20
72.130317
 30
0.0
 10
246.141962
 20
71.770817
 30
0.0
 10
246.501525
 20
71.411317
 30
0.0
 10
246.861087
 20
71.051817
 30
0.0
 10
247.220650
 20
70.692317
 30
0.0
 10
247.580212
 20
70.332817
 30
0.0
 10
247.939775
 20
69.973317
 30
0.0
 10
248.299337
 20
69.613817
 30
0.0
 10
248.658900
 20
69.254317
 30
0.0
 10
246.402212
 20
69.254317
 30
0.0
 10
244.145525
 20
69.254317
 30
0.0
 10
241.888837
 20
69.254317
 30
0.0
 10
239.632150
 20
69.254317
 30
0.0
 10
237.375462
 20
69.254317
 30
0.0
 10
235.118775
 20
69.254317
 30
0.0
 10
232.862087
 20
69.254317
 30
0.0
 10
230.605400
 20
69.254317
 30
0.0
 10
228.348712
 20
69.254317
 30
0.0
 10
226.092025
 20
69.254317
 30
0.0
 10
223.835337
 20
69.254317
 30
0.0
 10
221.578650
 20
69.254317
 30
0.0
 10
219.321962
 20
69.254317
 30
0.0
 10
217.065275
 20
69.254317
 30
0.0
 10
214.808587
 20
69.254317
 30
0.0
 10
212.551900
 20
69.254317
 30
0.0
 10
213.399212
 20
70.103817
 30
0.0
 10
214.246525
 20
70.953317
 30
0.0
 10
215.093837
 20
71.802817
 30
0.0
 10
215.941150
 20
72.652317
 30
0.0
 10
216.788462
 20
73.501817
 30
0.0
 10
217.635775
 20
74.351317
 30
0.0
 10
218.483087
 20
75.200817
 30
0.0
 10
219.330400
 20
76.050317
 30
0.0
 10
220.177712
 20
76.899817
 30
0.0
 10
221.025025
 20
77.749317
 30
0.0
 10
221.872337
 20
78.598817
 30
0.0
 10
222.719650
 20
79.448317
 30
0.0
 10
223.566962
 20
80.297817
 30
0.0
 10
224.414275
 20
81.147317
 30
0.0
 10
225.261587
 20
81.996817
 30
0.0
 10
226.108900
 20
82.846300
 30
0.0
  0
LWPOLYLINE
  5
106
100
AcDbEntity
  8
Bridge+Mark+%5BK%5D
 62
7
100
AcDbPolyline
 90
129
 70
0
 10
218.108900
 20
89.489300
 30
0.0
 10
218.108900
 20
89.280737
 30
0.0
 10
218.108900
 20
89.072175
 30
0.0
 10
218.108900
 20
88.863612
 30
0.0
 10
218.108900
 20
88.655050
 30
0.0
 10
218.108900
 20
88.446487
 30
0.0
 10
218.108900
 20
88.237925
 30
0.0
 10
218.108900
 20
88.029362
 30
0.0
 10
218.108900
 20
87.820800
 30
0.0
 10
218.108900
 20
87.612237
 30
0.0
 10
218.108900
 20
87.403675
 30
0.0
 10
218.108900
 20
87.195112
 30
0.0
 10
218.108900
 20
86.986550
 30
0.0
 10
218.108900
 20
86.777987
 30
0.0
 10
218.108900
 20
86.569425
 30
0.0
 10
218.108900
 20
86.360862
 30
0.0
 10
218.108900
 20
86.152300
 30
0.0
 10
217.315962
 20
85.357487
 30
0.0
 10
216.523025
 20
84.562675
 30
0.0
 10
215.730087
 20
83.767862
 30
0.0
 10
214.937150
 20
82.973050
 30
0.0
 10
214.144212
 20
82.178237
 30
0.0
 10
213.351275
 20
81.383425
 30
0.0
 10
212.558337
 20
80.588612
 30
0.0
 10
211.765400
 20
79.793800
 30
0.0
 10
210.972463
 20
78.998988
 30
0.0
 10
210.179525
 20
78.204175
 30
0.0
 10
209.386587
 20
77.409362
 30
0.0
 10
208.593650
 20
76.614550
 30
0.0
 10
207.800712
 20
75.819737
 30
0.0
 10
207.007775
 20
75.024925
 30
0.0
 10
206.214838
 20
74.230113
 30
0.0
 10
205.421900
 20
73.435300
 30
0.0
 10
205.421900
 20
74.626363
 30
0.0
 10
205.421900
 20
75.817425
 30
0.0
 10
205.421900
 20
77.008488
 30
0.0
 10
205.421900
 20
78.199550
 30
0.0
 10
205.421900
 20
79.390613
 30
0.0
 10
205.421900
 20
80.581675
 30
0.0
 10
205.421900
 20
81.772738
 30
0.0
 10
205.421900
 20
82.963800
 30
0.0
 10
205.421900
 20
84.154862
 30
0.0
 10
205.421900
 20
85.345925
 30
0.0
 10
205.421900
 20
86.536987
 30
0.0
 10
205.421900
 20
87.728050
 30
0.0
 10
205.421900
 20
88.919113
 30
0.0
 10
205.421900
 20
90.110175
 30
0.0
 10
205.421900
 20
91.301238
 30
0.0
 10
205.421900
 20
92.492300
 30
0.0
 10
204.151150
 20
93.762988
 30
0.0
 10
202.880400
 20
95.033675
 30
0.0
 10
201.609650
 20
96.304363
 30
0.0
 10
200.338900
 20
97.575050
 30
0.0
 10
199.068150
 20
98.845738
 30
0.0
 10
197.797400
 20
100.116425
 30
0.0
 10
196.526650
 20
101.387113
 30
0.0
 10
195.255900
 20
102.657800
 30
0.0
 10
193.985150
 20
103.928487
 30
0.0
 10
192.714400
 20
105.199175
 30
0.0
 10
191.443650
 20
106.469863
 30
0.0
 10
190.172900
 20
107.740550
 30
0.0
 10
188.902150
 20
109.011237
 30
0.0
 10
187.631400
 20
110.281925
 30
0.0
 10
186.360650
 20
111.552612
 30
0.0
 10
185.089900
 20
112.823300
 30
0.0
 10
185.089900
 20
113.453987
 30
0.0
 10
185.089900
 20
114.084675
 30
0.0
 10
185.089900
 20
114.715363
 30
0.0
 10
185.089900
 20
115.346050
 30
0.0
 10
185.089900
 20
115.976738
 30
0.0
 10
185.089900
 20
116.607425
 30
0.0
 10
185.089900
 20
117.238113
 30
0.0
 10
185.089900
 20
117.868800
 30
0.0
 10
185.089900
 20
118.499488
 30
0.0
 10
185.089900
 20
119.130175
 30
0.0
 10
185.089900
 20
119.760863
 30
0.0
 10
185.089900
 20
120.391550
 30
0.0
 10
185.089900
 20
121.022238
 30
0.0
 10
185.089900
 20
121.652925
 30
0.0
 10
185.089900
 20
122.283613
 30
0.0
 10
185.089900
 20
122.914300
 30
0.0
 10
185.914530
 20
122.880640
 30
0.0
 10
186.737660
 20
122.841170
 30
0.0
 10
187.559260
 20
122.795900
 30
0.0
 10
188.379290
 20
122.744820
 30
0.0
 10
189.197740
 20
122.687940
 30
0.0
 10
190.014570
 20
122.625270
 30
0.0
 10
190.829760
 20
122.556800
 30
0.0
 10
191.643270
 20
122.482540
 30
0.0
 10
192.455090
 20
122.402490
 30
0.0
 10
193.265180
 20
122.316650
 30
0.0
 10
194.073520
 20
122.225030
 30
0.0
 10
194.880070
 20
122.127630
 30
0.0
 10
195.684810
 20
122.024453
 30
0.0
 10
196.487720
 20
121.915501
 30
0.0
 10
197.288760
 20
121.800778
 30
0.0
 10
198.087900
 20
121.680286
 30
0.0
 10
198.087900
 20
120.919723
 30
0.0
 10
198.087900
 20
120.159161
 30
0.0
 10
198.087900
 20
119.398599
 30
0.0
 10
198.087900
 20
118.638036
 30
0.0
 10
198.087900
 20
117.877474
 30
0.0
 10
198.087900
 20
117.116911
 30
0.0
 10
198.087900
 20
116.356349
 30
0.0
 10
198.087900
 20
115.595786
 30
0.0
 10
198.087900
 20
114.835224
 30
0.0
 10
198.087900
 20
114.074661
 30
0.0
 10
198.087900
 20
113.314099
 30
0.0
 10
198.087900
 20
112.553536
 30
0.0
 10
198.087900
 20
111.792974
 30
0.0
 10
198.087900
 20
111.032411
 30
0.0
 10
198.087900
 20
110.271848
 30
0.0
 10
198.087900
 20
109.511286
 30
0.0
 10
199.339210
 20
108.259911
 30
0.0
 10
200.590520
 20
107.008536
 30
0.0
 10
201.841837
 20
105.757161
 30
0.0
 10
203.093150
 20
104.505786
 30
0.0
 10
204.344462
 20
103.254411
 30
0.0
 10
205.595775
 20
102.003036
 30
0.0
 10
206.847087
 20
100.751661
 30
0.0
 10
208.098400
 20
99.500286
 30
0.0
 10
209.349712
 20
98.248911
 30
0.0
 10
210.601025
 20
96.997536
 30
0.0
 10
211.852337
 20
95.746161
 30
0.0
 10
213.103650
 20
94.494786
 30
0.0
 10
214.354962
 20
93.243411
 30
0.0
 10
215.606275
 20
91.992036
 30
0.0
 10
216.857587
 20
90.740661
 30
0.0
 10
218.108900
 20
89.489300
 30
0.0
  0
LWPOLYLINE
  5
107
100
AcDbEntity
  8
Bridge+Mark+%5BK%5D
 62
7
100
AcDbPolyline
 90
65
 70
0
 10
218.108900
 20
100.802300
 30
0.0
 10
217.357650
 20
101.553675
 30
0.0
 10
216.606400
 20
102.305050
 30
0.0
 10
215.855150
 20
103.056425
 30
0.0
 10
215.103900
 20
103.807800
 30
0.0
 10
214.352650
 20
104.559175
 30
0.0
 10
213.601400
 20
105.310550
 30
0.0
 10
212.850150
 20
106.061925
 30
0.0
 10
212.098900
 20
106.813300
 30
0.0
 10
211.347650
 20
107.564675
 30
0.0
 10
210.596400
 20
108.316050
 30
0.0
 10
209.845150
 20
109.067425
 30
0.0
 10
209.093900
 20
109.818800
 30
0.0
 10
208.342650
 20
110.570175
 30
0.0
 10
207.591400
 20
111.321550
 30
0.0
 10
206.840150
 20
112.072925
 30
0.0
 10
206.088900
 20
112.824300
 30
0.0
 10
206.088900
 20
113.281862
 30
0.0
 10
206.088900
 20
113.739425
 30
0.0
 10
206.088900
 20
114.196987
 30
0.0
 10
206.088900
 20
114.654550
 30
0.0
 10
206.088900
 20
115.112113
 30
0.0
 10
206.088900
 20
115.569675
 30
0.0
 10
206.088900
 20
116.027238
 30
0.0
 10
206.088900
 20
116.484800
 30
0.0
 10
206.088900
 20
116.942363
 30
0.0
 10
206.088900
 20
117.399925
 30
0.0
 10
206.088900
 20
117.857487
 30
0.0
 10
206.088900
 20
118.315050
 30
0.0
 10
206.088900
 20
118.772613
 30
0.0
 10
206.088900
 20
119.230175
 30
0.0
 10
206.088900
 20
119.687738
 30
0.0
 10
206.088900
 20
120.145300
 30
0.0
 10
206.856406
 20
119.965588
 30
0.0
 10
207.621793
 20
119.780478
 30
0.0
 10
208.385049
 20
119.590009
 30
0.0
 10
209.146166
 20
119.394222
 30
0.0
 10
209.905132
 20
119.193155
 30
0.0
 10
210.661937
 20
118.986849
 30
0.0
 10
211.416572
 20
118.775342
 30
0.0
 10
212.169025
 20
118.558675
 30
0.0
 10
212.919287
 20
118.336887
 30
0.0
 10
213.667347
 20
118.110017
 30
0.0
 10
214.413196
 20
117.878105
 30
0.0
 10
215.156822
 20
117.641191
 30
0.0
 10
215.898216
 20
117.399313
 30
0.0
 10
216.637367
 20
117.152513
 30
0.0
 10
217.374265
 20
116.900829
 30
0.0
 10
218.108900
 20
116.644300
 30
0.0
 10
218.108900
 20
115.654175
 30
0.0
 10
218.108900
 20
114.664050
 30
0.0
 10
218.108900
 20
113.673925
 30
0.0
 10
218.108900
 20
112.683800
 30
0.0
 10
218.108900
 20
111.693675
 30
0.0
 10
218.108900
 20
110.703550
 30
0.0
 10
218.108900
 20
109.713425
 30
0.0
 10
218.108900
 20
108.723300
 30
0.0
 10
218.108900
 20
107.733175
 30
0.0
 10
218.108900
 20
106.743050
 30
0.0
 10
218.108900
 20
105.752925
 30
0.0
 10
218.108900
 20
104.762800
 30
0.0
 10
218.108900
 20
103.772675
 30
0.0
 10
218.108900
 20
102.782550
 30
0.0
 10
218.108900
 20
101.792425
 30
0.0
 10
218.108900
 20
100.802300
 30
0.0
  0
LWPOLYLINE
  5
108
100
AcDbEntity
  8
Bridge+Mark+%5BK%5D
 62
7
100
AcDbPolyline
 90
273
 70
0
 10
144.067900
 20
103.512300
 30
0.0
 10
144.067900
 20
104.344050
 30
0.0
 10
144.067900
 20
105.175800
 30
0.0
 10
144.067900
 20
106.007550
 30
0.0
 10
144.067900
 20
106.839300
 30
0.0
 10
144.067900
 20
107.671050
 30
0.0
 10
144.067900
 20
108.502800
 30
0.0
 10
144.067900
 20
109.334550
 30
0.0
 10
144.067900
 20
110.166300
 30
0.0
 10
144.067900
 20
110.998050
 30
0.0
 10
144.067900
 20
111.829800
 30
0.0
 10
144.067900
 20
112.661550
 30
0.0
 10
144.067900
 20
113.493300
 30
0.0
 10
144.067900
 20
114.325050
 30
0.0
 10
144.067900
 20
115.156800
 30
0.0
 10
144.067900
 20
115.988550
 30
0.0
 10
144.067900
 20
116.820300
 30
0.0
 10
144.216060
 20
116.871580
 30
0.0
 10
144.364290
 20
116.922670
 30
0.0
 10
144.512600
 20
116.973570
 30
0.0
 10
144.660990
 20
117.024270
 30
0.0
 10
144.809460
 20
117.074770
 30
0.0
 10
144.958020
 20
117.125070
 30
0.0
 10
145.106670
 20
117.175160
 30
0.0
 10
145.255400
 20
117.225050
 30
0.0
 10
145.404230
 20
117.274730
 30
0.0
 10
145.553150
 20
117.324190
 30
0.0
 10
145.702180
 20
117.373430
 30
0.0
 10
145.851310
 20
117.422460
 30
0.0
 10
146.000540
 20
117.471260
 30
0.0
 10
146.149880
 20
117.519840
 30
0.0
 10
146.299330
 20
117.568190
 30
0.0
 10
146.448900
 20
117.616310
 30
0.0
 10
146.431600
 20
117.599060
 30
0.0
 10
146.414300
 20
117.581810
 30
0.0
 10
146.397000
 20
117.564560
 30
0.0
 10
146.379700
 20
117.547310
 30
0.0
 10
146.362400
 20
117.530060
 30
0.0
 10
146.345100
 20
117.512810
 30
0.0
 10
146.327800
 20
117.495560
 30
0.0
 10
146.310500
 20
117.478310
 30
0.0
 10
146.293200
 20
117.461060
 30
0.0
 10
146.275900
 20
117.443810
 30
0.0
 10
146.258600
 20
117.426560
 30
0.0
 10
146.241300
 20
117.409310
 30
0.0
 10
146.224000
 20
117.392060
 30
0.0
 10
146.206700
 20
117.374810
 30
0.0
 10
146.189400
 20
117.357560
 30
0.0
 10
146.172100
 20
117.340310
 30
0.0
 10
147.853910
 20
115.658498
 30
0.0
 10
149.535730
 20
113.976685
 30
0.0
 10
151.217540
 20
112.294873
 30
0.0
 10
152.899350
 20
110.613060
 30
0.0
 10
154.581160
 20
108.931248
 30
0.0
 10
156.262980
 20
107.249435
 30
0.0
 10
157.944790
 20
105.567623
 30
0.0
 10
159.626600
 20
103.885810
 30
0.0
 10
161.308410
 20
102.203998
 30
0.0
 10
162.990230
 20
100.522185
 30
0.0
 10
164.672040
 20
98.840373
 30
0.0
 10
166.353850
 20
97.158560
 30
0.0
 10
168.035660
 20
95.476748
 30
0.0
 10
169.717480
 20
93.794935
 30
0.0
 10
171.399290
 20
92.113123
 30
0.0
 10
173.081100
 20
90.431310
 30
0.0
 10
173.025500
 20
90.268213
 30
0.0
 10
172.973000
 20
90.103693
 30
0.0
 10
172.923700
 20
89.937778
 30
0.0
 10
172.877600
 20
89.770498
 30
0.0
 10
172.834900
 20
89.601881
 30
0.0
 10
172.795600
 20
89.431958
 30
0.0
 10
172.759700
 20
89.260758
 30
0.0
 10
172.727300
 20
89.088310
 30
0.0
 10
172.698500
 20
88.914643
 30
0.0
 10
172.673300
 20
88.739787
 30
0.0
 10
172.651800
 20
88.563770
 30
0.0
 10
172.634100
 20
88.386623
 30
0.0
 10
172.620200
 20
88.208373
 30
0.0
 10
172.610200
 20
88.029052
 30
0.0
 10
172.604200
 20
87.848688
 30
0.0
 10
172.602200
 20
87.667310
 30
0.0
 10
172.645200
 20
86.815175
 30
0.0
 10
172.771450
 20
85.987687
 30
0.0
 10
172.976760
 20
85.189029
 30
0.0
 10
173.256920
 20
84.423388
 30
0.0
 10
173.607770
 20
83.694948
 30
0.0
 10
174.025120
 20
83.007894
 30
0.0
 10
174.504780
 20
82.366411
 30
0.0
 10
175.042560
 20
81.774685
 30
0.0
 10
175.634290
 20
81.236900
 30
0.0
 10
176.275770
 20
80.757242
 30
0.0
 10
176.962830
 20
80.339895
 30
0.0
 10
177.691270
 20
79.989044
 30
0.0
 10
178.456910
 20
79.708876
 30
0.0
 10
179.255570
 20
79.503574
 30
0.0
 10
180.083060
 20
79.377323
 30
0.0
 10
180.935190
 20
79.334313
 30
0.0
 10
181.787160
 20
79.377323
 30
0.0
 10
182.614530
 20
79.503574
 30
0.0
 10
183.413100
 20
79.708876
 30
0.0
 10
184.178690
 20
79.989044
 30
0.0
 10
184.907110
 20
80.339895
 30
0.0
 10
185.594170
 20
80.757242
 30
0.0
 10
186.235670
 20
81.236900
 30
0.0
 10
186.827440
 20
81.774685
 30
0.0
 10
187.365280
 20
82.366411
 30
0.0
 10
187.844990
 20
83.007894
 30
0.0
 10
188.262400
 20
83.694948
 30
0.0
 10
188.613310
 20
84.423388
 30
0.0
 10
188.893540
 20
85.189029
 30
0.0
 10
189.098890
 20
85.987687
 30
0.0
 10
189.225170
 20
86.815175
 30
0.0
 10
189.268170
 20
87.667310
 30
0.0
 10
189.225170
 20
88.519280
 30
0.0
 10
189.098890
 20
89.346646
 30
0.0
 10
188.893540
 20
90.145219
 30
0.0
 10
188.613310
 20
90.910810
 30
0.0
 10
188.262400
 20
91.639229
 30
0.0
 10
187.844990
 20
92.326287
 30
0.0
 10
187.365280
 20
92.967793
 30
0.0
 10
186.827440
 20
93.559560
 30
0.0
 10
186.235670
 20
94.097397
 30
0.0
 10
185.594170
 20
94.577115
 30
0.0
 10
184.907110
 20
94.994524
 30
0.0
 10
184.178690
 20
95.345435
 30
0.0
 10
183.413100
 20
95.625659
 30
0.0
 10
182.614530
 20
95.831005
 30
0.0
 10
181.787160
 20
95.957286
 30
0.0
 10
180.935190
 20
96.000306
 30
0.0
 10
180.813370
 20
95.999351
 30
0.0
 10
180.692050
 20
95.996551
 30
0.0
 10
180.571230
 20
95.991851
 30
0.0
 10
180.450910
 20
95.985351
 30
0.0
 10
180.331090
 20
95.977051
 30
0.0
 10
180.211780
 20
95.966991
 30
0.0
 10
180.092980
 20
95.955211
 30
0.0
 10
179.974690
 20
95.941741
 30
0.0
 10
179.856920
 20
95.926621
 30
0.0
 10
179.739660
 20
95.909881
 30
0.0
 10
179.622930
 20
95.891561
 30
0.0
 10
179.506720
 20
95.871691
 30
0.0
 10
179.391040
 20
95.850301
 30
0.0
 10
179.275890
 20
95.827431
 30
0.0
 10
179.161270
 20
95.803111
 30
0.0
 10
179.047190
 20
95.777371
 30
0.0
 10
177.535310
 20
97.289246
 30
0.0
 10
176.023440
 20
98.801121
 30
0.0
 10
174.511560
 20
100.312996
 30
0.0
 10
172.999690
 20
101.824871
 30
0.0
 10
171.487810
 20
103.336746
 30
0.0
 10
169.975940
 20
104.848621
 30
0.0
 10
168.464060
 20
106.360496
 30
0.0
 10
166.952190
 20
107.872371
 30
0.0
 10
165.440310
 20
109.384246
 30
0.0
 10
163.928440
 20
110.896121
 30
0.0
 10
162.416560
 20
112.407996
 30
0.0
 10
160.904690
 20
113.919871
 30
0.0
 10
159.392810
 20
115.431746
 30
0.0
 10
157.880940
 20
116.943621
 30
0.0
 10
156.369060
 20
118.455496
 30
0.0
 10
154.857190
 20
119.967371
 30
0.0
 10
156.204110
 20
120.278393
 30
0.0
 10
157.557190
 20
120.573141
 30
0.0
 10
158.916330
 20
120.851511
 30
0.0
 10
160.281410
 20
121.113402
 30
0.0
 10
161.652340
 20
121.358711
 30
0.0
 10
163.029010
 20
121.587336
 30
0.0
 10
164.411330
 20
121.799173
 30
0.0
 10
165.799190
 20
121.994121
 30
0.0
 10
167.192490
 20
122.172077
 30
0.0
 10
168.591120
 20
122.332937
 30
0.0
 10
169.994980
 20
122.476601
 30
0.0
 10
171.403970
 20
122.602965
 30
0.0
 10
172.817990
 20
122.711926
 30
0.0
 10
174.236940
 20
122.803386
 30
0.0
 10
175.660700
 20
122.877236
 30
0.0
 10
177.089190
 20
122.933376
 30
0.0
 10
177.089190
 20
122.094439
 30
0.0
 10
177.089190
 20
121.255501
 30
0.0
 10
177.089190
 20
120.416564
 30
0.0
 10
177.089190
 20
119.577626
 30
0.0
 10
177.089190
 20
118.738689
 30
0.0
 10
177.089190
 20
117.899751
 30
0.0
 10
177.089190
 20
117.060814
 30
0.0
 10
177.089190
 20
116.221876
 30
0.0
 10
177.089190
 20
115.382939
 30
0.0
 10
177.089190
 20
114.544001
 30
0.0
 10
177.089190
 20
113.705064
 30
0.0
 10
177.089190
 20
112.866126
 30
0.0
 10
177.089190
 20
112.027189
 30
0.0
 10
177.089190
 20
111.188251
 30
0.0
 10
177.089190
 20
110.349314
 30
0.0
 10
177.089190
 20
109.510376
 30
0.0
 10
178.360060
 20
108.239501
 30
0.0
 10
179.630940
 20
106.968626
 30
0.0
 10
180.901810
 20
105.697751
 30
0.0
 10
182.172690
 20
104.426876
 30
0.0
 10
183.443560
 20
103.156001
 30
0.0
 10
184.714440
 20
101.885126
 30
0.0
 10
185.985310
 20
100.614251
 30
0.0
 10
187.256190
 20
99.343376
 30
0.0
 10
188.527060
 20
98.072501
 30
0.0
 10
189.797940
 20
96.801626
 30
0.0
 10
191.068810
 20
95.530751
 30
0.0
 10
192.339690
 20
94.259876
 30
0.0
 10
193.610560
 20
92.989001
 30
0.0
 10
194.881440
 20
91.718126
 30
0.0
 10
196.152310
 20
90.447251
 30
0.0
 10
197.423190
 20
89.176376
 30
0.0
 10
197.423190
 20
87.931251
 30
0.0
 10
197.423190
 20
86.686126
 30
0.0
 10
197.423190
 20
85.441001
 30
0.0
 10
197.423190
 20
84.195876
 30
0.0
 10
197.423190
 20
82.950751
 30
0.0
 10
197.423190
 20
81.705626
 30
0.0
 10
197.423190
 20
80.460501
 30
0.0
 10
197.423190
 20
79.215376
 30
0.0
 10
197.423190
 20
77.970251
 30
0.0
 10
197.423190
 20
76.725126
 30
0.0
 10
197.423190
 20
75.480001
 30
0.0
 10
197.423190
 20
74.234876
 30
0.0
 10
197.423190
 20
72.989751
 30
0.0
 10
197.423190
 20
71.744626
 30
0.0
 10
197.423190
 20
70.499501
 30
0.0
 10
197.423190
 20
69.254376
 30
0.0
 10
195.402310
 20
69.254376
 30
0.0
 10
193.381440
 20
69.254376
 30
0.0
 10
191.360560
 20
69.254376
 30
0.0
 10
189.339690
 20
69.254376
 30
0.0
 10
187.318810
 20
69.254376
 30
0.0
 10
185.297940
 20
69.254376
 30
0.0
 10
183.277060
 20
69.254376
 30
0.0
 10
181.256190
 20
69.254376
 30
0.0
 10
179.235310
 20
69.254376
 30
0.0
 10
177.214440
 20
69.254376
 30
0.0
 10
175.193560
 20
69.254376
 30
0.0
 10
173.172690
 20
69.254376
 30
0.0
 10
171.151810
 20
69.254376
 30
0.0
 10
169.130940
 20
69.254376
 30
0.0
 10
167.110060
 20
69.254376
 30
0.0
 10
165.089190
 20
69.254376
 30
0.0
 10
165.089190
 20
70.081563
 30
0.0
 10
165.089190
 20
70.908751
 30
0.0
 10
165.089190
 20
71.735938
 30
0.0
 10
165.089190
 20
72.563126
 30
0.0
 10
165.089190
 20
73.390313
 30
0.0
 10
165.089190
 20
74.217501
 30
0.0
 10
165.089190
 20
75.044688
 30
0.0
 10
165.089190
 20
75.871876
 30
0.0
 10
165.089190
 20
76.699063
 30
0.0
 10
165.089190
 20
77.526251
 30
0.0
 10
165.089190
 20
78.353439
 30
0.0
 10
165.089190
 20
79.180626
 30
0.0
 10
165.089190
 20
80.007814
 30
0.0
 10
165.089190
 20
80.835001
 30
0.0
 10
165.089190
 20
81.662188
 30
0.0
 10
165.089190
 20
82.489376
 30
0.0
 10
163.775380
 20
83.803314
 30
0.0
 10
162.461560
 20
85.117251
 30
0.0
 10
161.147750
 20
86.431188
 30
0.0
 10
159.833940
 20
87.745126
 30
0.0
 10
158.520130
 20
89.059064
 30
0.0
 10
157.206310
 20
90.373001
 30
0.0
 10
155.892500
 20
91.686939
 30
0.0
 10
154.578690
 20
93.000876
 30
0.0
 10
153.264880
 20
94.314814
 30
0.0
 10
151.951070
 20
95.628751
 30
0.0
 10
150.637250
 20
96.942688
 30
0.0
 10
149.323440
 20
98.256626
 30
0.0
 10
148.009630
 20
99.570564
 30
0.0
 10
146.695810
 20
100.884501
 30
0.0
 10
145.382000
 20
102.198439
 30
0.0
 10
144.067900
 20
103.512300
 30
0.0
  0
LWPOLYLINE
  5
109
100
AcDbEntity
  8
Bridge+Mark+%5BK%5D
 62
7
100
AcDbPolyline
 90
113
 70
0
 10
130.229900
 20
72.133300
 30
0.0
 10
131.094770
 20
72.989487
 30
0.0
 10
131.959650
 20
73.845675
 30
0.0
 10
132.824520
 20
74.701863
 30
0.0
 10
133.689400
 20
75.558050
 30
0.0
 10
134.554270
 20
76.414238
 30
0.0
 10
135.419150
 20
77.270425
 30
0.0
 10
136.284020
 20
78.126613
 30
0.0
 10
137.148900
 20
78.982800
 30
0.0
 10
138.013780
 20
79.838988
 30
0.0
 10
138.878650
 20
80.695175
 30
0.0
 10
139.743520
 20
81.551362
 30
0.0
 10
140.608400
 20
82.407550
 30
0.0
 10
141.473280
 20
83.263737
 30
0.0
 10
142.338150
 20
84.119925
 30
0.0
 10
143.203020
 20
84.976113
 30
0.0
 10
144.067900
 20
85.832300
 30
0.0
 10
144.067900
 20
86.230175
 30
0.0
 10
144.067900
 20
86.628050
 30
0.0
 10
144.067900
 20
87.025925
 30
0.0
 10
144.067900
 20
87.423800
 30
0.0
 10
144.067900
 20
87.821675
 30
0.0
 10
144.067900
 20
88.219550
 30
0.0
 10
144.067900
 20
88.617425
 30
0.0
 10
144.067900
 20
89.015300
 30
0.0
 10
144.067900
 20
89.413175
 30
0.0
 10
144.067900
 20
89.811050
 30
0.0
 10
144.067900
 20
90.208925
 30
0.0
 10
144.067900
 20
90.606800
 30
0.0
 10
144.067900
 20
91.004675
 30
0.0
 10
144.067900
 20
91.402550
 30
0.0
 10
144.067900
 20
91.800425
 30
0.0
 10
144.067900
 20
92.198300
 30
0.0
 10
144.881710
 20
91.384425
 30
0.0
 10
145.695520
 20
90.570550
 30
0.0
 10
146.509340
 20
89.756675
 30
0.0
 10
147.323150
 20
88.942800
 30
0.0
 10
148.136960
 20
88.128925
 30
0.0
 10
148.950780
 20
87.315050
 30
0.0
 10
149.764590
 20
86.501175
 30
0.0
 10
150.578400
 20
85.687300
 30
0.0
 10
151.392210
 20
84.873425
 30
0.0
 10
152.206020
 20
84.059550
 30
0.0
 10
153.019840
 20
83.245675
 30
0.0
 10
153.833650
 20
82.431800
 30
0.0
 10
154.647460
 20
81.617925
 30
0.0
 10
155.461270
 20
80.804050
 30
0.0
 10
156.275090
 20
79.990175
 30
0.0
 10
157.088900
 20
79.176300
 30
0.0
 10
157.088900
 20
78.556175
 30
0.0
 10
157.088900
 20
77.936050
 30
0.0
 10
157.088900
 20
77.315925
 30
0.0
 10
157.088900
 20
76.695800
 30
0.0
 10
157.088900
 20
76.075675
 30
0.0
 10
157.088900
 20
75.455550
 30
0.0
 10
157.088900
 20
74.835425
 30
0.0
 10
157.088900
 20
74.215300
 30
0.0
 10
157.088900
 20
73.595175
 30
0.0
 10
157.088900
 20
72.975050
 30
0.0
 10
157.088900
 20
72.354925
 30
0.0
 10
157.088900
 20
71.734800
 30
0.0
 10
157.088900
 20
71.114675
 30
0.0
 10
157.088900
 20
70.494550
 30
0.0
 10
157.088900
 20
69.874425
 30
0.0
 10
157.088900
 20
69.254300
 30
0.0
 10
155.432090
 20
69.254300
 30
0.0
 10
153.775270
 20
69.254300
 30
0.0
 10
152.118460
 20
69.254300
 30
0.0
 10
150.461650
 20
69.254300
 30
0.0
 10
148.804840
 20
69.254300
 30
0.0
 10
147.148020
 20
69.254300
 30
0.0
 10
145.491210
 20
69.254300
 30
0.0
 10
143.834400
 20
69.254300
 30
0.0
 10
142.177590
 20
69.254300
 30
0.0
 10
140.520770
 20
69.254300
 30
0.0
 10
138.863960
 20
69.254300
 30
0.0
 10
137.207150
 20
69.254300
 30
0.0
 10
135.550340
 20
69.254300
 30
0.0
 10
133.893520
 20
69.254300
 30
0.0
 10
132.236710
 20
69.254300
 30
0.0
 10
130.579900
 20
69.254300
 30
0.0
 10
130.580900
 20
69.279980
 30
0.0
 10
130.582900
 20
69.305640
 30
0.0
 10
130.584900
 20
69.331290
 30
0.0
 10
130.586900
 20
69.356940
 30
0.0
 10
130.588900
 20
69.382600
 30
0.0
 10
130.590900
 20
69.408270
 30
0.0
 10
130.592900
 20
69.433960
 30
0.0
 10
130.594900
 20
69.459680
 30
0.0
 10
130.596900
 20
69.485430
 30
0.0
 10
130.597900
 20
69.511230
 30
0.0
 10
130.598900
 20
69.537080
 30
0.0
 10
130.599900
 20
69.562980
 30
0.0
 10
130.600860
 20
69.588950
 30
0.0
 10
130.601580
 20
69.614990
 30
0.0
 10
130.602040
 20
69.641110
 30
0.0
 10
130.602200
 20
69.667310
 30
0.0
 10
130.600200
 20
69.827840
 30
0.0
 10
130.595200
 20
69.987660
 30
0.0
 10
130.587200
 20
70.146738
 30
0.0
 10
130.576700
 20
70.305044
 30
0.0
 10
130.563300
 20
70.462548
 30
0.0
 10
130.547000
 20
70.619218
 30
0.0
 10
130.527800
 20
70.775024
 30
0.0
 10
130.505700
 20
70.929935
 30
0.0
 10
130.480800
 20
71.083920
 30
0.0
 10
130.453100
 20
71.236949
 30
0.0
 10
130.422600
 20
71.388990
 30
0.0
 10
130.389400
 20
71.540013
 30
0.0
 10
130.353500
 20
71.689987
 30
0.0
 10
130.314900
 20
71.838882
 30
0.0
 10
130.273700
 20
71.986667
 30
0.0
 10
130.229800
 20
72.133310
 30
0.0
  0
LWPOLYLINE
  5
10a
100
AcDbEntity
  8
Bridge+Mark+%5BK%5D
 62
7
100
AcDbPolyline
 90
161
 70
0
 10
103.046800
 20
71.554310
 30
0.0
 10
104.329360
 20
72.847123
 30
0.0
 10
105.611920
 20
74.139935
 30
0.0
 10
106.894490
 20
75.432748
 30
0.0
 10
108.177050
 20
76.725560
 30
0.0
 10
109.459610
 20
78.018373
 30
0.0
 10
110.742170
 20
79.311185
 30
0.0
 10
112.024740
 20
80.603998
 30
0.0
 10
113.307300
 20
81.896810
 30
0.0
 10
114.589860
 20
83.189623
 30
0.0
 10
115.872420
 20
84.482435
 30
0.0
 10
117.154990
 20
85.775248
 30
0.0
 10
118.437550
 20
87.068060
 30
0.0
 10
119.720110
 20
88.360872
 30
0.0
 10
121.002670
 20
89.653685
 30
0.0
 10
122.285240
 20
90.946497
 30
0.0
 10
123.567800
 20
92.239310
 30
0.0
 10
123.562800
 20
93.175248
 30
0.0
 10
123.557800
 20
94.111185
 30
0.0
 10
123.552800
 20
95.047123
 30
0.0
 10
123.547800
 20
95.983060
 30
0.0
 10
123.542800
 20
96.918998
 30
0.0
 10
123.537800
 20
97.854935
 30
0.0
 10
123.532800
 20
98.790873
 30
0.0
 10
123.527800
 20
99.726810
 30
0.0
 10
123.522800
 20
100.662748
 30
0.0
 10
123.517800
 20
101.598685
 30
0.0
 10
123.512800
 20
102.534623
 30
0.0
 10
123.507800
 20
103.470560
 30
0.0
 10
123.502800
 20
104.406498
 30
0.0
 10
123.497800
 20
105.342435
 30
0.0
 10
123.492800
 20
106.278373
 30
0.0
 10
123.487800
 20
107.214310
 30
0.0
 10
124.246830
 20
107.663825
 30
0.0
 10
125.009650
 20
108.107478
 30
0.0
 10
125.776240
 20
108.545242
 30
0.0
 10
126.546570
 20
108.977091
 30
0.0
 10
127.320600
 20
109.402999
 30
0.0
 10
128.098310
 20
109.822939
 30
0.0
 10
128.879680
 20
110.236885
 30
0.0
 10
129.664670
 20
110.644810
 30
0.0
 10
130.453270
 20
111.046688
 30
0.0
 10
131.245430
 20
111.442494
 30
0.0
 10
132.041130
 20
111.832199
 30
0.0
 10
132.840350
 20
112.215779
 30
0.0
 10
133.643050
 20
112.593206
 30
0.0
 10
134.449210
 20
112.964455
 30
0.0
 10
135.258800
 20
113.329498
 30
0.0
 10
136.071800
 20
113.688310
 30
0.0
 10
136.071800
 20
112.155872
 30
0.0
 10
136.071800
 20
110.623435
 30
0.0
 10
136.071800
 20
109.090997
 30
0.0
 10
136.071800
 20
107.558560
 30
0.0
 10
136.071800
 20
106.026123
 30
0.0
 10
136.071800
 20
104.493685
 30
0.0
 10
136.071800
 20
102.961247
 30
0.0
 10
136.071800
 20
101.428810
 30
0.0
 10
136.071800
 20
99.896372
 30
0.0
 10
136.071800
 20
98.363935
 30
0.0
 10
136.071800
 20
96.831497
 30
0.0
 10
136.071800
 20
95.299060
 30
0.0
 10
136.071800
 20
93.766623
 30
0.0
 10
136.071800
 20
92.234185
 30
0.0
 10
136.071800
 20
90.701747
 30
0.0
 10
136.071800
 20
89.169310
 30
0.0
 10
135.347300
 20
88.452123
 30
0.0
 10
134.622800
 20
87.734935
 30
0.0
 10
133.898300
 20
87.017748
 30
0.0
 10
133.173800
 20
86.300560
 30
0.0
 10
132.449300
 20
85.583373
 30
0.0
 10
131.724800
 20
84.866185
 30
0.0
 10
131.000300
 20
84.148998
 30
0.0
 10
130.275800
 20
83.431810
 30
0.0
 10
129.551300
 20
82.714623
 30
0.0
 10
128.826800
 20
81.997435
 30
0.0
 10
128.102300
 20
81.280248
 30
0.0
 10
127.377800
 20
80.563060
 30
0.0
 10
126.653300
 20
79.845873
 30
0.0
 10
125.928800
 20
79.128685
 30
0.0
 10
125.204300
 20
78.411498
 30
0.0
 10
124.479800
 20
77.694310
 30
0.0
 10
124.347400
 20
77.729720
 30
0.0
 10
124.214220
 20
77.763160
 30
0.0
 10
124.080250
 20
77.794590
 30
0.0
 10
123.945520
 20
77.823970
 30
0.0
 10
123.810020
 20
77.851250
 30
0.0
 10
123.673770
 20
77.876390
 30
0.0
 10
123.536780
 20
77.899340
 30
0.0
 10
123.399050
 20
77.920060
 30
0.0
 10
123.260590
 20
77.938510
 30
0.0
 10
123.121420
 20
77.954640
 30
0.0
 10
122.981540
 20
77.968410
 30
0.0
 10
122.840960
 20
77.979780
 30
0.0
 10
122.699680
 20
77.988680
 30
0.0
 10
122.557730
 20
77.995080
 30
0.0
 10
122.415100
 20
77.998980
 30
0.0
 10
122.271800
 20
78.000280
 30
0.0
 10
121.419830
 20
77.957260
 30
0.0
 10
120.592460
 20
77.830979
 30
0.0
 10
119.793890
 20
77.625633
 30
0.0
 10
119.028300
 20
77.345409
 30
0.0
 10
118.299880
 20
76.994498
 30
0.0
 10
117.612820
 20
76.577089
 30
0.0
 10
116.971320
 20
76.097371
 30
0.0
 10
116.379550
 20
75.559534
 30
0.0
 10
115.841710
 20
74.967767
 30
0.0
 10
115.362000
 20
74.326261
 30
0.0
 10
114.944590
 20
73.639203
 30
0.0
 10
114.593670
 20
72.910784
 30
0.0
 10
114.313450
 20
72.145193
 30
0.0
 10
114.108100
 20
71.346620
 30
0.0
 10
113.981820
 20
70.519254
 30
0.0
 10
113.938820
 20
69.667284
 30
0.0
 10
113.938980
 20
69.641084
 30
0.0
 10
113.939440
 20
69.614964
 30
0.0
 10
113.940160
 20
69.588924
 30
0.0
 10
113.941120
 20
69.562954
 30
0.0
 10
113.942120
 20
69.537054
 30
0.0
 10
113.943120
 20
69.511204
 30
0.0
 10
113.944120
 20
69.485404
 30
0.0
 10
113.946120
 20
69.459654
 30
0.0
 10
113.948120
 20
69.433934
 30
0.0
 10
113.950120
 20
69.408244
 30
0.0
 10
113.952120
 20
69.382574
 30
0.0
 10
113.954120
 20
69.356914
 30
0.0
 10
113.956120
 20
69.331264
 30
0.0
 10
113.958120
 20
69.305614
 30
0.0
 10
113.960120
 20
69.279954
 30
0.0
 10
113.961120
 20
69.254274
 30
0.0
 10
113.279310
 20
69.254274
 30
0.0
 10
112.597490
 20
69.254274
 30
0.0
 10
111.915680
 20
69.254274
 30
0.0
 10
111.233870
 20
69.254274
 30
0.0
 10
110.552060
 20
69.254274
 30
0.0
 10
109.870240
 20
69.254274
 30
0.0
 10
109.188430
 20
69.254274
 30
0.0
 10
108.506620
 20
69.254274
 30
0.0
 10
107.824810
 20
69.254274
 30
0.0
 10
107.142990
 20
69.254274
 30
0.0
 10
106.461180
 20
69.254274
 30
0.0
 10
105.779370
 20
69.254274
 30
0.0
 10
105.097560
 20
69.254274
 30
0.0
 10
104.415740
 20
69.254274
 30
0.0
 10
103.733930
 20
69.254274
 30
0.0
 10
103.052120
 20
69.254274
 30
0.0
 10
103.052120
 20
69.398024
 30
0.0
 10
103.052120
 20
69.541774
 30
0.0
 10
103.052120
 20
69.685524
 30
0.0
 10
103.052120
 20
69.829274
 30
0.0
 10
103.052120
 20
69.973024
 30
0.0
 10
103.052120
 20
70.116774
 30
0.0
 10
103.052120
 20
70.260524
 30
0.0
 10
103.052120
 20
70.404274
 30
0.0
 10
103.052120
 20
70.548024
 30
0.0
 10
103.052120
 20
70.691774
 30
0.0
 10
103.052120
 20
70.835524
 30
0.0
 10
103.052120
 20
70.979274
 30
0.0
 10
103.052120
 20
71.123024
 30
0.0
 10
103.052120
 20
71.266774
 30
0.0
 10
103.052120
 20
71.410524
 30
0.0
 10
103.046800
 20
71.554310
 30
0.0
  0
LWPOLYLINE
  5
10b
100
AcDbEntity
  8
Bridge+Mark+%5BK%5D
 62
7
100
AcDbPolyline
 90
369
 70
0
 10
350.839800
 20
69.246310
 30
0.0
 10
350.839800
 20
69.246810
 30
0.0
 10
350.839800
 20
69.247310
 30
0.0
 10
350.839800
 20
69.247810
 30
0.0
 10
350.839800
 20
69.248310
 30
0.0
 10
350.839800
 20
69.248810
 30
0.0
 10
350.839800
 20
69.249310
 30
0.0
 10
350.839800
 20
69.249810
 30
0.0
 10
350.839800
 20
69.250310
 30
0.0
 10
350.839800
 20
69.250810
 30
0.0
 10
350.839800
 20
69.251310
 30
0.0
 10
350.839800
 20
69.251810
 30
0.0
 10
350.839800
 20
69.252310
 30
0.0
 10
350.839800
 20
69.252810
 30
0.0
 10
350.839800
 20
69.253310
 30
0.0
 10
350.839800
 20
69.253810
 30
0.0
 10
350.839800
 20
69.254310
 30
0.0
 10
347.057487
 20
69.254310
 30
0.0
 10
343.275175
 20
69.254310
 30
0.0
 10
339.492862
 20
69.254310
 30
0.0
 10
335.710550
 20
69.254310
 30
0.0
 10
331.928237
 20
69.254310
 30
0.0
 10
328.145925
 20
69.254310
 30
0.0
 10
324.363612
 20
69.254310
 30
0.0
 10
320.581300
 20
69.254310
 30
0.0
 10
316.798988
 20
69.254310
 30
0.0
 10
313.016675
 20
69.254310
 30
0.0
 10
309.234362
 20
69.254310
 30
0.0
 10
305.452050
 20
69.254310
 30
0.0
 10
301.669737
 20
69.254310
 30
0.0
 10
297.887425
 20
69.254310
 30
0.0
 10
294.105112
 20
69.254310
 30
0.0
 10
290.322800
 20
69.254310
 30
0.0
 10
286.177186
 20
76.439117
 30
0.0
 10
281.575501
 20
83.310484
 30
0.0
 10
276.538415
 20
89.847705
 30
0.0
 10
271.086597
 20
96.030076
 30
0.0
 10
265.240719
 20
101.836889
 30
0.0
 10
259.021450
 20
107.247441
 30
0.0
 10
252.449462
 20
112.241025
 30
0.0
 10
245.545425
 20
116.796935
 30
0.0
 10
238.330009
 20
120.894466
 30
0.0
 10
230.823884
 20
124.512914
 30
0.0
 10
223.047721
 20
127.631570
 30
0.0
 10
215.022191
 20
130.229732
 30
0.0
 10
206.767963
 20
132.286692
 30
0.0
 10
198.305710
 20
133.781746
 30
0.0
 10
189.656100
 20
134.694187
 30
0.0
 10
180.839800
 20
135.003310
 30
0.0
 10
172.023320
 20
134.694187
 30
0.0
 10
163.373520
 20
133.781746
 30
0.0
 10
154.911090
 20
132.286692
 30
0.0
 10
146.656690
 20
130.229732
 30
0.0
 10
138.631000
 20
127.631570
 30
0.0
 10
130.854700
 20
124.512914
 30
0.0
 10
123.348450
 20
120.894466
 30
0.0
 10
116.132930
 20
116.796935
 30
0.0
 10
109.228810
 20
112.241025
 30
0.0
 10
102.656760
 20
107.247441
 30
0.0
 10
96.437470
 20
101.836889
 30
0.0
 10
90.591600
 20
96.030076
 30
0.0
 10
85.139820
 20
89.847705
 30
0.0
 10
80.102810
 20
83.310484
 30
0.0
 10
75.501250
 20
76.439117
 30
0.0
 10
71.355800
 20
69.254310
 30
0.0
 10
67.573550
 20
69.254310
 30
0.0
 10
63.791300
 20
69.254310
 30
0.0
 10
60.009050
 20
69.254310
 30
0.0
 10
56.226800
 20
69.254310
 30
0.0
 10
52.444550
 20
69.254310
 30
0.0
 10
48.662300
 20
69.254310
 30
0.0
 10
44.880050
 20
69.254310
 30
0.0
 10
41.097800
 20
69.254310
 30
0.0
 10
37.315550
 20
69.254310
 30
0.0
 10
33.533300
 20
69.254310
 30
0.0
 10
29.751050
 20
69.254310
 30
0.0
 10
25.968800
 20
69.254310
 30
0.0
 10
22.186550
 20
69.254310
 30
0.0
 10
18.404300
 20
69.254310
 30
0.0
 10
14.622050
 20
69.254310
 30
0.0
 10
10.839800
 20
69.254310
 30
0.0
 10
10.839800
 20
68.504185
 30
0.0
 10
10.839800
 20
67.754060
 30
0.0
 10
10.839800
 20
67.003935
 30
0.0
 10
10.839800
 20
66.253810
 30
0.0
 10
10.839800
 20
65.503685
 30
0.0
 10
10.839800
 20
64.753560
 30
0.0
 10
10.839800
 20
64.003435
 30
0.0
 10
10.839800
 20
63.253310
 30
0.0
 10
10.839800
 20
62.503185
 30
0.0
 10
10.839800
 20
61.753060
 30
0.0
 10
10.839800
 20
61.002935
 30
0.0
 10
10.839800
 20
60.252810
 30
0.0
 10
10.839800
 20
59.502685
 30
0.0
 10
10.839800
 20
58.752560
 30
0.0
 10
10.839800
 20
58.002435
 30
0.0
 10
10.839800
 20
57.252310
 30
0.0
 10
10.839800
 20
57.252247
 30
0.0
 10
10.839800
 20
57.252185
 30
0.0
 10
10.839800
 20
57.252122
 30
0.0
 10
10.839800
 20
57.252060
 30
0.0
 10
10.839800
 20
57.251997
 30
0.0
 10
10.839800
 20
57.251935
 30
0.0
 10
10.839800
 20
57.251872
 30
0.0
 10
10.839800
 20
57.251810
 30
0.0
 10
10.839800
 20
57.251747
 30
0.0
 10
10.839800
 20
57.251685
 30
0.0
 10
10.839800
 20
57.251623
 30
0.0
 10
10.839800
 20
57.251560
 30
0.0
 10
10.839800
 20
57.251497
 30
0.0
 10
10.839800
 20
57.251435
 30
0.0
 10
10.839800
 20
57.251373
 30
0.0
 10
10.839800
 20
57.251310
 30
0.0
 10
13.222800
 20
57.190930
 30
0.0
 10
15.573340
 20
57.012436
 30
0.0
 10
17.888700
 20
56.718676
 30
0.0
 10
20.166140
 20
56.312499
 30
0.0
 10
22.402930
 20
55.796750
 30
0.0
 10
24.596340
 20
55.174280
 30
0.0
 10
26.743620
 20
54.447934
 30
0.0
 10
28.842050
 20
53.620561
 30
0.0
 10
30.888900
 20
52.695008
 30
0.0
 10
32.881420
 20
51.674124
 30
0.0
 10
34.816890
 20
50.560754
 30
0.0
 10
36.692580
 20
49.357748
 30
0.0
 10
38.505750
 20
48.067954
 30
0.0
 10
40.253660
 20
46.694217
 30
0.0
 10
41.933590
 20
45.239387
 30
0.0
 10
43.542800
 20
43.706311
 30
0.0
 10
44.919090
 20
42.268632
 30
0.0
 10
46.232620
 20
40.773913
 30
0.0
 10
47.481390
 20
39.224126
 30
0.0
 10
48.663390
 20
37.621248
 30
0.0
 10
49.776620
 20
35.967253
 30
0.0
 10
50.819050
 20
34.264116
 30
0.0
 10
51.788700
 20
32.513810
 30
0.0
 10
52.683550
 20
30.718311
 30
0.0
 10
53.501590
 20
28.879593
 30
0.0
 10
54.240830
 20
26.999631
 30
0.0
 10
54.899240
 20
25.080400
 30
0.0
 10
55.474830
 20
23.123873
 30
0.0
 10
55.965590
 20
21.132027
 30
0.0
 10
56.369510
 20
19.106834
 30
0.0
 10
56.684580
 20
17.050271
 30
0.0
 10
56.908800
 20
14.964311
 30
0.0
 10
56.900800
 20
14.717514
 30
0.0
 10
56.893800
 20
14.470620
 30
0.0
 10
56.886800
 20
14.223626
 30
0.0
 10
56.879800
 20
13.976530
 30
0.0
 10
56.873800
 20
13.729328
 30
0.0
 10
56.867800
 20
13.482018
 30
0.0
 10
56.862800
 20
13.234597
 30
0.0
 10
56.857800
 20
12.987061
 30
0.0
 10
56.853800
 20
12.739408
 30
0.0
 10
56.849800
 20
12.491635
 30
0.0
 10
56.846800
 20
12.243739
 30
0.0
 10
56.843800
 20
11.995717
 30
0.0
 10
56.841800
 20
11.747566
 30
0.0
 10
56.839800
 20
11.499284
 30
0.0
 10
56.838830
 20
11.250866
 30
0.0
 10
56.838510
 20
11.002311
 30
0.0
 10
56.854110
 20
11.002311
 30
0.0
 10
56.869710
 20
11.002311
 30
0.0
 10
56.885310
 20
11.002311
 30
0.0
 10
56.900910
 20
11.002311
 30
0.0
 10
56.916510
 20
11.002311
 30
0.0
 10
56.932110
 20
11.002311
 30
0.0
 10
56.947710
 20
11.002311
 30
0.0
 10
56.963310
 20
11.002311
 30
0.0
 10
56.978910
 20
11.002311
 30
0.0
 10
56.994510
 20
11.002311
 30
0.0
 10
57.010110
 20
11.002311
 30
0.0
 10
57.025710
 20
11.002311
 30
0.0
 10
57.041310
 20
11.002311
 30
0.0
 10
57.056910
 20
11.002311
 30
0.0
 10
57.072510
 20
11.002311
 30
0.0
 10
57.088110
 20
11.002311
 30
0.0
 10
57.822490
 20
11.002311
 30
0.0
 10
58.556860
 20
11.002311
 30
0.0
 10
59.291240
 20
11.002311
 30
0.0
 10
60.025610
 20
11.002311
 30
0.0
 10
60.759990
 20
11.002311
 30
0.0
 10
61.494360
 20
11.002311
 30
0.0
 10
62.228740
 20
11.002311
 30
0.0
 10
62.963110
 20
11.002311
 30
0.0
 10
63.697490
 20
11.002311
 30
0.0
 10
64.431860
 20
11.002311
 30
0.0
 10
65.166240
 20
11.002311
 30
0.0
 10
65.900610
 20
11.002311
 30
0.0
 10
66.634990
 20
11.002311
 30
0.0
 10
67.369360
 20
11.002311
 30
0.0
 10
68.103740
 20
11.002311
 30
0.0
 10
68.838110
 20
11.002311
 30
0.0
 10
68.853710
 20
11.002311
 30
0.0
 10
68.869310
 20
11.002311
 30
0.0
 10
68.884910
 20
11.002311
 30
0.0
 10
68.900510
 20
11.002311
 30
0.0
 10
68.916110
 20
11.002311
 30
0.0
 10
68.931710
 20
11.002311
 30
0.0
 10
68.947310
 20
11.002311
 30
0.0
 10
68.962910
 20
11.002311
 30
0.0
 10
68.978510
 20
11.002311
 30
0.0
 10
68.994110
 20
11.002311
 30
0.0
 10
69.009710
 20
11.002311
 30
0.0
 10
69.025310
 20
11.002311
 30
0.0
 10
69.040910
 20
11.002311
 30
0.0
 10
69.056510
 20
11.002311
 30
0.0
 10
69.072110
 20
11.002311
 30
0.0
 10
69.087710
 20
11.002311
 30
0.0
 10
69.086930
 20
11.264813
 30
0.0
 10
69.084930
 20
11.526952
 30
0.0
 10
69.080930
 20
11.788739
 30
0.0
 10
69.075930
 20
12.050186
 30
0.0
 10
69.068930
 20
12.311305
 30
0.0
 10
69.060930
 20
12.572108
 30
0.0
 10
69.051930
 20
12.832606
 30
0.0
 10
69.041630
 20
13.092811
 30
0.0
 10
69.030230
 20
13.352735
 30
0.0
 10
69.017730
 20
13.612389
 30
0.0
 10
69.004130
 20
13.871786
 30
0.0
 10
68.989530
 20
14.130936
 30
0.0
 10
68.974030
 20
14.389852
 30
0.0
 10
68.957630
 20
14.648545
 30
0.0
 10
68.940430
 20
14.907028
 30
0.0
 10
68.922430
 20
15.165311
 30
0.0
 10
69.059500
 20
17.963521
 30
0.0
 10
69.264310
 20
20.743114
 30
0.0
 10
69.536080
 20
23.503286
 30
0.0
 10
69.874010
 20
26.243233
 30
0.0
 10
70.277310
 20
28.962151
 30
0.0
 10
70.745190
 20
31.659235
 30
0.0
 10
71.276870
 20
34.333681
 30
0.0
 10
71.871560
 20
36.984686
 30
0.0
 10
72.528450
 20
39.611444
 30
0.0
 10
73.246780
 20
42.213153
 30
0.0
 10
74.025730
 20
44.789007
 30
0.0
 10
74.864540
 20
47.338202
 30
0.0
 10
75.762400
 20
49.859934
 30
0.0
 10
76.718530
 20
52.353399
 30
0.0
 10
77.732140
 20
54.817793
 30
0.0
 10
78.802430
 20
57.252311
 30
0.0
 10
91.556810
 20
57.252311
 30
0.0
 10
104.311180
 20
57.252311
 30
0.0
 10
117.065560
 20
57.252311
 30
0.0
 10
129.819930
 20
57.252311
 30
0.0
 10
142.574310
 20
57.252311
 30
0.0
 10
155.328680
 20
57.252311
 30
0.0
 10
168.083060
 20
57.252311
 30
0.0
 10
180.837430
 20
57.252311
 30
0.0
 10
193.591810
 20
57.252311
 30
0.0
 10
206.346180
 20
57.252311
 30
0.0
 10
219.100555
 20
57.252311
 30
0.0
 10
231.854930
 20
57.252311
 30
0.0
 10
244.609305
 20
57.252311
 30
0.0
 10
257.363680
 20
57.252311
 30
0.0
 10
270.118055
 20
57.252311
 30
0.0
 10
282.872430
 20
57.252311
 30
0.0
 10
284.039007
 20
54.591590
 30
0.0
 10
285.138032
 20
51.895368
 30
0.0
 10
286.168443
 20
49.164684
 30
0.0
 10
287.129180
 20
46.400577
 30
0.0
 10
288.019183
 20
43.604085
 30
0.0
 10
288.837391
 20
40.776247
 30
0.0
 10
289.582743
 20
37.918101
 30
0.0
 10
290.254180
 20
35.030686
 30
0.0
 10
290.850640
 20
32.115041
 30
0.0
 10
291.371063
 20
29.172204
 30
0.0
 10
291.814388
 20
26.203213
 30
0.0
 10
292.179555
 20
23.209108
 30
0.0
 10
292.465503
 20
20.190926
 30
0.0
 10
292.671172
 20
17.149707
 30
0.0
 10
292.795501
 20
14.086489
 30
0.0
 10
292.837430
 20
11.002311
 30
0.0
 10
293.587555
 20
11.002311
 30
0.0
 10
294.337680
 20
11.002311
 30
0.0
 10
295.087805
 20
11.002311
 30
0.0
 10
295.837930
 20
11.002311
 30
0.0
 10
296.588055
 20
11.002311
 30
0.0
 10
297.338180
 20
11.002311
 30
0.0
 10
298.088305
 20
11.002311
 30
0.0
 10
298.838430
 20
11.002311
 30
0.0
 10
299.588555
 20
11.002311
 30
0.0
 10
300.338680
 20
11.002311
 30
0.0
 10
301.088805
 20
11.002311
 30
0.0
 10
301.838930
 20
11.002311
 30
0.0
 10
302.589055
 20
11.002311
 30
0.0
 10
303.339180
 20
11.002311
 30
0.0
 10
304.089305
 20
11.002311
 30
0.0
 10
304.839430
 20
11.002311
 30
0.0
 10
304.839419
 20
11.005511
 30
0.0
 10
304.839387
 20
11.008711
 30
0.0
 10
304.839338
 20
11.011911
 30
0.0
 10
304.839274
 20
11.015111
 30
0.0
 10
304.839198
 20
11.018311
 30
0.0
 10
304.839114
 20
11.021511
 30
0.0
 10
304.839024
 20
11.024711
 30
0.0
 10
304.838930
 20
11.027911
 30
0.0
 10
304.838837
 20
11.031111
 30
0.0
 10
304.838747
 20
11.034311
 30
0.0
 10
304.838662
 20
11.037511
 30
0.0
 10
304.838587
 20
11.040711
 30
0.0
 10
304.838523
 20
11.043911
 30
0.0
 10
304.838473
 20
11.047111
 30
0.0
 10
304.838442
 20
11.050311
 30
0.0
 10
304.838430
 20
11.053511
 30
0.0
 10
304.901580
 20
13.432772
 30
0.0
 10
305.082394
 20
15.779618
 30
0.0
 10
305.378042
 20
18.091329
 30
0.0
 10
305.785696
 20
20.365183
 30
0.0
 10
306.302529
 20
22.598461
 30
0.0
 10
306.925710
 20
24.788443
 30
0.0
 10
307.652412
 20
26.932408
 30
0.0
 10
308.479806
 20
29.027636
 30
0.0
 10
309.405063
 20
31.071407
 30
0.0
 10
310.425354
 20
33.061001
 30
0.0
 10
311.537853
 20
34.993698
 30
0.0
 10
312.739728
 20
36.866777
 30
0.0
 10
314.028152
 20
38.677518
 30
0.0
 10
315.400296
 20
40.423200
 30
0.0
 10
316.854801
 20
42.100894
 30
0.0
 10
318.385900
 20
43.708300
 30
0.0
 10
319.994955
 20
45.240871
 30
0.0
 10
321.674793
 20
46.695302
 30
0.0
 10
323.422672
 20
48.068736
 30
0.0
 10
325.235853
 20
49.358316
 30
0.0
 10
327.111595
 20
50.561182
 30
0.0
 10
329.047156
 20
51.674478
 30
0.0
 10
331.039796
 20
52.695345
 30
0.0
 10
333.086775
 20
53.620925
 30
0.0
 10
335.185351
 20
54.448361
 30
0.0
 10
337.332785
 20
55.174794
 30
0.0
 10
339.526334
 20
55.797367
 30
0.0
 10
341.763259
 20
56.313222
 30
0.0
 10
344.040819
 20
56.719500
 30
0.0
 10
346.356273
 20
57.013345
 30
0.0
 10
348.706880
 20
57.191897
 30
0.0
 10
351.089900
 20
57.252297
 30
0.0
 10
351.089900
 20
58.002297
 30
0.0
 10
351.089900
 20
58.752297
 30
0.0
 10
351.089900
 20
59.502297
 30
0.0
 10
351.089900
 20
60.252297
 30
0.0
 10
351.089900
 20
61.002297
 30
0.0
 10
351.089900
 20
61.752297
 30
0.0
 10
351.089900
 20
62.502297
 30
0.0
 10
351.089900
 20
63.252297
 30
0.0
 10
351.089900
 20
64.002297
 30
0.0
 10
351.089900
 20
64.752297
 30
0.0
 10
351.089900
 20
65.502297
 30
0.0
 10
351.089900
 20
66.252297
 30
0.0
 10
351.089900
 20
67.002297
 30
0.0
 10
351.089900
 20
67.752297
 30
0.0
 10
351.089900
 20
68.502297
 30
0.0
 10
351.089900
 20
69.252297
 30
0.0
 10
351.074170
 20
69.252230
 30
0.0
 10
351.058480
 20
69.252039
 30
0.0
 10
351.042830
 20
69.251743
 30
0.0
 10
351.027210
 20
69.251360
 30
0.0
 10
351.011610
 20
69.250905
 30
0.0
 10
350.996030
 20
69.250399
 30
0.0
 10
350.980460
 20
69.249857
 30
0.0
 10
350.964900
 20
69.249297
 30
0.0
 10
350.949340
 20
69.248737
 30
0.0
 10
350.933770
 20
69.248195
 30
0.0
 10
350.918190
 20
69.247689
 30
0.0
 10
350.902590
 20
69.247235
 30
0.0
 10
350.886970
 20
69.246851
 30
0.0
 10
350.871320
 20
69.246555
 30
0.0
 10
350.855630
 20
69.246364
 30
0.0
 10
350.839900
 20
69.246300
 30
0.0
  0
ENDSEC
  0
SECTION
  2
OBJECTS
  0
DICTIONARY
  5
C
330
0
100
AcDbDictionary
  3
ACAD_GROUP
350
D
  3
ACAD_MLINESTYLE
350
17
  0
DICTIONARY
  5
D
330
C
100
AcDbDictionary
  0
DICTIONARY
  5
1A
330
C
100
AcDbDictionary
  0
DICTIONARY
  5
17
330
C
100
AcDbDictionary
  3
STANDARD
350
18
  0
DICTIONARY
  5
19
330
C
100
AcDbDictionary
  0
ENDSEC
  0
EOF
