  0
SECTION
  2
HEADER
  9
$ACADVER
  1
AC1014
  9
$HANDSEED
  5
FFFF
  9
$MEASUREMENT
 70
     1
  0
ENDSEC
  0
SECTION
  2
TABLES
  0
TABLE
  2
VPORT
  5
8
330
0
100
AcDbSymbolTable
 70
     4
  0
VPORT
  5
2E
330
8
100
AcDbSymbolTableRecord
100
AcDbViewportTableRecord
  2
*ACTIVE
 70
     0
 10
0.0
 20
0.0
 11
1.0
 21
1.0
 12
210.0
 22
148.5
 13
0.0
 23
0.0
 14
10.0
 24
10.0
 15
10.0
 25
10.0
 16
0.0
 26
0.0
 36
1.0
 17
0.0
 27
0.0
 37
0.0
 40
341.0
 41
1.24
 42
50.0
 43
0.0
 44
0.0
 50
0.0
 51
0.0
 71
     0
 72
   100
 73
     1
 74
     3
 75
     0
 76
     0
 77
     0
 78
     0
  0
ENDTAB
  0
TABLE
  2
LTYPE
  5
5
330
0
100
AcDbSymbolTable
 70
     1
  0
LTYPE
  5
14
330
5
100
AcDbSymbolTableRecord
100
AcDbLinetypeTableRecord
  2
BYBLOCK
 70
     0
  3

 72
    65
 73
     0
 40
0.0
  0
LTYPE
  5
15
330
5
100
AcDbSymbolTableRecord
100
AcDbLinetypeTableRecord
  2
BYLAYER
 70
     0
  3

 72
    65
 73
     0
 40
0.0
  0
LTYPE
  5
16
330
5
100
AcDbSymbolTableRecord
100
AcDbLinetypeTableRecord
  2
CONTINUOUS
 70
     0
  3
Solid line
 72
    65
 73
     0
 40
0.0
  0
ENDTAB
  0
TABLE
  2
LAYER
  5
2
100
AcDbSymbolTable
 70
2
  0
LAYER
  5
50
100
AcDbSymbolTableRecord
100
AcDbLayerTableRecord
  2
0
 70
0
  6
CONTINUOUS
  0
LAYER
  5
51
100
AcDbSymbolTableRecord
100
AcDbLayerTableRecord
  2
Bridge+Type+%5BK%5D
 70
0
  6
CONTINUOUS
  0
ENDTAB
  0
TABLE
  2
STYLE
  5
3
330
0
100
AcDbSymbolTable
 70
     1
  0
STYLE
  5
11
330
3
100
AcDbSymbolTableRecord
100
AcDbTextStyleTableRecord
  2
STANDARD
 70
     0
 40
0.0
 41
1.0
 50
0.0
 71
     0
 42
2.5
  3
txt
  4

  0
ENDTAB
  0
TABLE
  2
VIEW
  5
6
330
0
100
AcDbSymbolTable
 70
     0
  0
ENDTAB
  0
TABLE
  2
UCS
  5
7
330
0
100
AcDbSymbolTable
 70
     0
  0
ENDTAB
  0
TABLE
  2
APPID
  5
9
330
0
100
AcDbSymbolTable
 70
     2
  0
APPID
  5
12
330
9
100
AcDbSymbolTableRecord
100
AcDbRegAppTableRecord
  2
ACAD
 70
     0
  0
ENDTAB
  0
TABLE
  2
DIMSTYLE
  5
A
330
0
100
AcDbSymbolTable
 70
     1
  0
DIMSTYLE
105
27
330
A
100
AcDbSymbolTableRecord
100
AcDbDimStyleTableRecord
  2
ISO-25
 70
     0
  3

  4

  5

  6

  7

 40
1.0
 41
2.5
 42
0.625
 43
3.75
 44
1.25
 45
0.0
 46
0.0
 47
0.0
 48
0.0
140
2.5
141
2.5
142
0.0
143
0.03937007874016
144
1.0
145
0.0
146
1.0
147
0.625
 71
     0
 72
     0
 73
     0
 74
     0
 75
     0
 76
     0
 77
     1
 78
     8
170
     0
171
     3
172
     1
173
     0
174
     0
175
     0
176
     0
177
     0
178
     0
270
     2
271
     2
272
     2
273
     2
274
     3
340
11
275
     0
280
     0
281
     0
282
     0
283
     0
284
     8
285
     0
286
     0
287
     3
288
     0
  0
ENDTAB
  0
TABLE
  2
BLOCK_RECORD
  5
1
330
0
100
AcDbSymbolTable
 70
     1
  0
BLOCK_RECORD
  5
1F
330
1
100
AcDbSymbolTableRecord
100
AcDbBlockTableRecord
  2
*MODEL_SPACE
  0
BLOCK_RECORD
  5
1B
330
1
100
AcDbSymbolTableRecord
100
AcDbBlockTableRecord
  2
*PAPER_SPACE
  0
ENDTAB
  0
ENDSEC
  0
SECTION
  2
BLOCKS
  0
BLOCK
  5
20
330
1F
100
AcDbEntity
  8
0
100
AcDbBlockBegin
  2
*MODEL_SPACE
 70
     0
 10
0.0
 20
0.0
 30
0.0
  3
*MODEL_SPACE
  1

  0
ENDBLK
  5
21
330
1F
100
AcDbEntity
  8
0
100
AcDbBlockEnd
  0
BLOCK
  5
1C
330
1B
100
AcDbEntity
 67
     1
  8
0
100
AcDbBlockBegin
  2
*PAPER_SPACE
  1

  0
ENDBLK
  5
1D
330
1B
100
AcDbEntity
 67
     1
  8
0
100
AcDbBlockEnd
  0
ENDSEC
  0
SECTION
  2
ENTITIES
  0
LWPOLYLINE
  5
100
100
AcDbEntity
  8
Bridge+Type+%5BK%5D
 62
7
100
AcDbPolyline
 90
33
 70
0
 10
24.360800
 20
70.616200
 30
0.0
 10
24.018941
 20
70.960138
 30
0.0
 10
23.561675
 20
71.242950
 30
0.0
 10
23.002222
 20
71.434638
 30
0.0
 10
22.353800
 20
71.505200
 30
0.0
 10
21.705800
 20
71.434638
 30
0.0
 10
21.146300
 20
71.242950
 30
0.0
 10
20.688800
 20
70.960138
 30
0.0
 10
20.346800
 20
70.616200
 30
0.0
 10
20.036753
 20
70.101434
 30
0.0
 10
19.802175
 20
69.278325
 30
0.0
 10
19.653659
 20
67.869653
 30
0.0
 10
19.601800
 20
65.598200
 30
0.0
 10
19.653659
 20
63.330700
 30
0.0
 10
19.802175
 20
61.931700
 30
0.0
 10
20.036753
 20
61.118450
 30
0.0
 10
20.346800
 20
60.608200
 30
0.0
 10
20.688800
 20
60.260044
 30
0.0
 10
21.146300
 20
59.967950
 30
0.0
 10
21.705800
 20
59.766981
 30
0.0
 10
22.353800
 20
59.692201
 30
0.0
 10
23.002222
 20
59.766981
 30
0.0
 10
23.561675
 20
59.967950
 30
0.0
 10
24.018940
 20
60.260044
 30
0.0
 10
24.360800
 20
60.608200
 30
0.0
 10
24.671003
 20
61.118450
 30
0.0
 10
24.905925
 20
61.931700
 30
0.0
 10
25.054784
 20
63.330700
 30
0.0
 10
25.106800
 20
65.598200
 30
0.0
 10
25.054784
 20
67.869653
 30
0.0
 10
24.905925
 20
69.278325
 30
0.0
 10
24.671003
 20
70.101434
 30
0.0
 10
24.360800
 20
70.616200
 30
0.0
  0
LWPOLYLINE
  5
101
100
AcDbEntity
  8
Bridge+Type+%5BK%5D
 62
7
100
AcDbPolyline
 90
33
 70
0
 10
28.059800
 20
57.512200
 30
0.0
 10
26.890081
 20
56.525481
 30
0.0
 10
25.583300
 20
55.807450
 30
0.0
 10
24.088269
 20
55.368794
 30
0.0
 10
22.353800
 20
55.220200
 30
0.0
 10
20.619769
 20
55.368794
 30
0.0
 10
19.124800
 20
55.807450
 30
0.0
 10
17.818081
 20
56.525481
 30
0.0
 10
16.648800
 20
57.512200
 30
0.0
 10
15.418691
 20
59.251653
 30
0.0
 10
14.809675
 20
61.211325
 30
0.0
 10
14.603972
 20
63.342934
 30
0.0
 10
14.583800
 20
65.598200
 30
0.0
 10
14.603972
 20
67.852872
 30
0.0
 10
14.809675
 20
69.984075
 30
0.0
 10
15.418691
 20
71.943341
 30
0.0
 10
16.648800
 20
73.682200
 30
0.0
 10
17.818081
 20
74.670653
 30
0.0
 10
19.124800
 20
75.389575
 30
0.0
 10
20.619769
 20
75.828559
 30
0.0
 10
22.353800
 20
75.977200
 30
0.0
 10
24.088269
 20
75.828559
 30
0.0
 10
25.583300
 20
75.389575
 30
0.0
 10
26.890081
 20
74.670653
 30
0.0
 10
28.059800
 20
73.682200
 30
0.0
 10
29.289331
 20
71.943341
 30
0.0
 10
29.898050
 20
69.984075
 30
0.0
 10
30.103644
 20
67.852872
 30
0.0
 10
30.123800
 20
65.598200
 30
0.0
 10
30.103644
 20
63.342934
 30
0.0
 10
29.898050
 20
61.211325
 30
0.0
 10
29.289331
 20
59.251653
 30
0.0
 10
28.059800
 20
57.512200
 30
0.0
  0
LWPOLYLINE
  5
102
100
AcDbEntity
  8
Bridge+Type+%5BK%5D
 62
7
100
AcDbPolyline
 90
21
 70
0
 10
41.453600
 20
71.303700
 30
0.0
 10
40.744100
 20
71.303700
 30
0.0
 10
40.034600
 20
71.303700
 30
0.0
 10
39.325100
 20
71.303700
 30
0.0
 10
38.615600
 20
71.303700
 30
0.0
 10
38.615600
 20
70.271450
 30
0.0
 10
38.615600
 20
69.239200
 30
0.0
 10
38.615600
 20
68.206950
 30
0.0
 10
38.615600
 20
67.174700
 30
0.0
 10
39.325100
 20
67.174700
 30
0.0
 10
40.034600
 20
67.174700
 30
0.0
 10
40.744100
 20
67.174700
 30
0.0
 10
41.453600
 20
67.174700
 30
0.0
 10
42.374569
 20
67.348153
 30
0.0
 10
43.059100
 20
67.809325
 30
0.0
 10
43.485631
 20
68.469434
 30
0.0
 10
43.632600
 20
69.239700
 30
0.0
 10
43.485631
 20
70.009388
 30
0.0
 10
43.059100
 20
70.669200
 30
0.0
 10
42.374569
 20
71.130263
 30
0.0
 10
41.453600
 20
71.303700
 30
0.0
  0
LWPOLYLINE
  5
103
100
AcDbEntity
  8
Bridge+Type+%5BK%5D
 62
7
100
AcDbPolyline
 90
29
 70
0
 10
41.682600
 20
62.672700
 30
0.0
 10
40.915850
 20
62.672700
 30
0.0
 10
40.149100
 20
62.672700
 30
0.0
 10
39.382350
 20
62.672700
 30
0.0
 10
38.615600
 20
62.672700
 30
0.0
 10
38.615600
 20
60.852450
 30
0.0
 10
38.615600
 20
59.032200
 30
0.0
 10
38.615600
 20
57.211950
 30
0.0
 10
38.615600
 20
55.391700
 30
0.0
 10
37.361100
 20
55.391700
 30
0.0
 10
36.106600
 20
55.391700
 30
0.0
 10
34.852100
 20
55.391700
 30
0.0
 10
33.597600
 20
55.391700
 30
0.0
 10
33.597600
 20
60.495200
 30
0.0
 10
33.597600
 20
65.598700
 30
0.0
 10
33.597600
 20
70.702200
 30
0.0
 10
33.597600
 20
75.805700
 30
0.0
 10
35.618850
 20
75.805700
 30
0.0
 10
37.640100
 20
75.805700
 30
0.0
 10
39.661350
 20
75.805700
 30
0.0
 10
41.682600
 20
75.805700
 30
0.0
 10
44.682288
 20
75.251559
 30
0.0
 10
46.864850
 20
73.780825
 30
0.0
 10
48.198037
 20
71.681028
 30
0.0
 10
48.649600
 20
69.239700
 30
0.0
 10
48.198037
 20
66.798638
 30
0.0
 10
46.864850
 20
64.698450
 30
0.0
 10
44.682288
 20
63.227138
 30
0.0
 10
41.682600
 20
62.672700
 30
0.0
  0
LWPOLYLINE
  5
104
100
AcDbEntity
  8
Bridge+Type+%5BK%5D
 62
7
100
AcDbPolyline
 90
49
 70
0
 10
51.578600
 20
55.391600
 30
0.0
 10
51.578600
 20
60.495100
 30
0.0
 10
51.578600
 20
65.598600
 30
0.0
 10
51.578600
 20
70.702100
 30
0.0
 10
51.578600
 20
75.805600
 30
0.0
 10
55.047850
 20
75.805600
 30
0.0
 10
58.517100
 20
75.805600
 30
0.0
 10
61.986350
 20
75.805600
 30
0.0
 10
65.455600
 20
75.805600
 30
0.0
 10
65.455600
 20
74.687350
 30
0.0
 10
65.455600
 20
73.569100
 30
0.0
 10
65.455600
 20
72.450850
 30
0.0
 10
65.455600
 20
71.332600
 30
0.0
 10
63.240850
 20
71.332600
 30
0.0
 10
61.026100
 20
71.332600
 30
0.0
 10
58.811350
 20
71.332600
 30
0.0
 10
56.596600
 20
71.332600
 30
0.0
 10
56.596600
 20
70.479600
 30
0.0
 10
56.596600
 20
69.626600
 30
0.0
 10
56.596600
 20
68.773600
 30
0.0
 10
56.596600
 20
67.920600
 30
0.0
 10
58.488600
 20
67.920600
 30
0.0
 10
60.380600
 20
67.920600
 30
0.0
 10
62.272600
 20
67.920600
 30
0.0
 10
64.164600
 20
67.920600
 30
0.0
 10
64.164600
 20
66.802600
 30
0.0
 10
64.164600
 20
65.684600
 30
0.0
 10
64.164600
 20
64.566600
 30
0.0
 10
64.164600
 20
63.448600
 30
0.0
 10
62.272600
 20
63.448600
 30
0.0
 10
60.380600
 20
63.448600
 30
0.0
 10
58.488600
 20
63.448600
 30
0.0
 10
56.596600
 20
63.448600
 30
0.0
 10
56.596600
 20
62.552600
 30
0.0
 10
56.596600
 20
61.656600
 30
0.0
 10
56.596600
 20
60.760600
 30
0.0
 10
56.596600
 20
59.864600
 30
0.0
 10
58.811350
 20
59.864600
 30
0.0
 10
61.026100
 20
59.864600
 30
0.0
 10
63.240850
 20
59.864600
 30
0.0
 10
65.455600
 20
59.864600
 30
0.0
 10
65.455600
 20
58.746350
 30
0.0
 10
65.455600
 20
57.628100
 30
0.0
 10
65.455600
 20
56.509850
 30
0.0
 10
65.455600
 20
55.391600
 30
0.0
 10
61.986350
 20
55.391600
 30
0.0
 10
58.517100
 20
55.391600
 30
0.0
 10
55.047850
 20
55.391600
 30
0.0
 10
51.578600
 20
55.391600
 30
0.0
  0
LWPOLYLINE
  5
105
100
AcDbEntity
  8
Bridge+Type+%5BK%5D
 62
7
100
AcDbPolyline
 90
41
 70
0
 10
80.568800
 20
55.391600
 30
0.0
 10
78.934550
 20
57.957600
 30
0.0
 10
77.300300
 20
60.523600
 30
0.0
 10
75.666050
 20
63.089600
 30
0.0
 10
74.031800
 20
65.655600
 30
0.0
 10
74.031800
 20
63.089600
 30
0.0
 10
74.031800
 20
60.523600
 30
0.0
 10
74.031800
 20
57.957600
 30
0.0
 10
74.031800
 20
55.391600
 30
0.0
 10
72.777550
 20
55.391600
 30
0.0
 10
71.523300
 20
55.391600
 30
0.0
 10
70.269050
 20
55.391600
 30
0.0
 10
69.014800
 20
55.391600
 30
0.0
 10
69.014800
 20
60.495100
 30
0.0
 10
69.014800
 20
65.598600
 30
0.0
 10
69.014800
 20
70.702100
 30
0.0
 10
69.014800
 20
75.805600
 30
0.0
 10
70.111550
 20
75.805600
 30
0.0
 10
71.208300
 20
75.805600
 30
0.0
 10
72.305050
 20
75.805600
 30
0.0
 10
73.401800
 20
75.805600
 30
0.0
 10
75.036050
 20
73.239100
 30
0.0
 10
76.670300
 20
70.672600
 30
0.0
 10
78.304550
 20
68.106100
 30
0.0
 10
79.938800
 20
65.539600
 30
0.0
 10
79.938800
 20
68.106100
 30
0.0
 10
79.938800
 20
70.672600
 30
0.0
 10
79.938800
 20
73.239100
 30
0.0
 10
79.938800
 20
75.805600
 30
0.0
 10
81.193050
 20
75.805600
 30
0.0
 10
82.447300
 20
75.805600
 30
0.0
 10
83.701550
 20
75.805600
 30
0.0
 10
84.955800
 20
75.805600
 30
0.0
 10
84.955800
 20
70.702100
 30
0.0
 10
84.955800
 20
65.598600
 30
0.0
 10
84.955800
 20
60.495100
 30
0.0
 10
84.955800
 20
55.391600
 30
0.0
 10
83.859050
 20
55.391600
 30
0.0
 10
82.762300
 20
55.391600
 30
0.0
 10
81.665550
 20
55.391600
 30
0.0
 10
80.568800
 20
55.391600
 30
0.0
  0
LWPOLYLINE
  5
106
100
AcDbEntity
  8
Bridge+Type+%5BK%5D
 62
7
100
AcDbPolyline
 90
81
 70
0
 10
101.275900
 20
55.219700
 30
0.0
 10
99.038259
 20
55.342247
 30
0.0
 10
97.007525
 20
55.771075
 30
0.0
 10
95.175728
 20
56.597966
 30
0.0
 10
93.534900
 20
57.914700
 30
0.0
 10
94.337650
 20
58.717450
 30
0.0
 10
95.140400
 20
59.520200
 30
0.0
 10
95.943150
 20
60.322950
 30
0.0
 10
96.745900
 20
61.125700
 30
0.0
 10
97.675916
 20
60.454606
 30
0.0
 10
98.810025
 20
60.011700
 30
0.0
 10
100.051572
 20
59.767544
 30
0.0
 10
101.303900
 20
59.692700
 30
0.0
 10
102.595822
 20
59.813888
 30
0.0
 10
103.508525
 20
60.168700
 30
0.0
 10
104.050166
 20
60.744013
 30
0.0
 10
104.228900
 20
61.526700
 30
0.0
 10
104.206462
 20
61.876278
 30
0.0
 10
104.135650
 20
62.193325
 30
0.0
 10
104.011212
 20
62.478309
 30
0.0
 10
103.827900
 20
62.731700
 30
0.0
 10
103.600681
 20
62.913606
 30
0.0
 10
103.303900
 20
63.068700
 30
0.0
 10
102.932119
 20
63.191544
 30
0.0
 10
102.479900
 20
63.276700
 30
0.0
 10
101.863400
 20
63.362450
 30
0.0
 10
101.246900
 20
63.448200
 30
0.0
 10
100.630400
 20
63.533950
 30
0.0
 10
100.013900
 20
63.619700
 30
0.0
 10
98.740462
 20
63.877716
 30
0.0
 10
97.630900
 20
64.264825
 30
0.0
 10
96.687837
 20
64.781122
 30
0.0
 10
95.913900
 20
65.426700
 30
0.0
 10
95.295275
 20
66.232559
 30
0.0
 10
94.856650
 20
67.186075
 30
0.0
 10
94.595400
 20
68.284903
 30
0.0
 10
94.508900
 20
69.526700
 30
0.0
 10
95.020541
 20
72.106575
 30
0.0
 10
96.494525
 20
74.149450
 30
0.0
 10
98.839447
 20
75.493700
 30
0.0
 10
101.963900
 20
75.977700
 30
0.0
 10
104.026666
 20
75.842575
 30
0.0
 10
105.845025
 20
75.414200
 30
0.0
 10
107.443072
 20
74.658075
 30
0.0
 10
108.844900
 20
73.539700
 30
0.0
 10
108.056400
 20
72.751200
 30
0.0
 10
107.267900
 20
71.962700
 30
0.0
 10
106.479400
 20
71.174200
 30
0.0
 10
105.690900
 20
70.385700
 30
0.0
 10
104.666994
 20
71.118622
 30
0.0
 10
103.605400
 20
71.472325
 30
0.0
 10
102.618806
 20
71.583966
 30
0.0
 10
101.819900
 20
71.590700
 30
0.0
 10
100.696884
 20
71.419950
 30
0.0
 10
99.931525
 20
70.977700
 30
0.0
 10
99.494103
 20
70.368950
 30
0.0
 10
99.354900
 20
69.698700
 30
0.0
 10
99.373259
 20
69.486309
 30
0.0
 10
99.437275
 20
69.246825
 30
0.0
 10
99.560353
 20
68.996278
 30
0.0
 10
99.755900
 20
68.750700
 30
0.0
 10
99.983447
 20
68.560044
 30
0.0
 10
100.286275
 20
68.385700
 30
0.0
 10
100.675166
 20
68.243606
 30
0.0
 10
101.160900
 20
68.149700
 30
0.0
 10
101.777400
 20
68.063700
 30
0.0
 10
102.393900
 20
67.977700
 30
0.0
 10
103.010400
 20
67.891700
 30
0.0
 10
103.626900
 20
67.805700
 30
0.0
 10
104.907291
 20
67.553434
 30
0.0
 10
105.999525
 20
67.185575
 30
0.0
 10
106.908947
 20
66.705028
 30
0.0
 10
107.640900
 20
66.114700
 30
0.0
 10
108.338088
 20
65.234247
 30
0.0
 10
108.809150
 20
64.189825
 30
0.0
 10
109.075837
 20
62.989591
 30
0.0
 10
109.159900
 20
61.641700
 30
0.0
 10
108.532712
 20
58.884106
 30
0.0
 10
106.830400
 20
56.871450
 30
0.0
 10
104.321837
 20
55.638419
 30
0.0
 10
101.275900
 20
55.219700
 30
0.0
  0
LWPOLYLINE
  5
107
100
AcDbEntity
  8
Bridge+Type+%5BK%5D
 62
7
100
AcDbPolyline
 90
33
 70
0
 10
121.578100
 20
70.616200
 30
0.0
 10
121.236100
 20
70.960138
 30
0.0
 10
120.778600
 20
71.242950
 30
0.0
 10
120.219100
 20
71.434638
 30
0.0
 10
119.571100
 20
71.505200
 30
0.0
 10
118.923100
 20
71.434638
 30
0.0
 10
118.363600
 20
71.242950
 30
0.0
 10
117.906100
 20
70.960138
 30
0.0
 10
117.564100
 20
70.616200
 30
0.0
 10
117.253897
 20
70.101434
 30
0.0
 10
117.018975
 20
69.278325
 30
0.0
 10
116.870116
 20
67.869653
 30
0.0
 10
116.818100
 20
65.598200
 30
0.0
 10
116.870116
 20
63.330700
 30
0.0
 10
117.018975
 20
61.931700
 30
0.0
 10
117.253897
 20
61.118450
 30
0.0
 10
117.564100
 20
60.608200
 30
0.0
 10
117.906100
 20
60.260044
 30
0.0
 10
118.363600
 20
59.967950
 30
0.0
 10
118.923100
 20
59.766981
 30
0.0
 10
119.571100
 20
59.692201
 30
0.0
 10
120.219100
 20
59.766981
 30
0.0
 10
120.778600
 20
59.967950
 30
0.0
 10
121.236100
 20
60.260044
 30
0.0
 10
121.578100
 20
60.608200
 30
0.0
 10
121.888303
 20
61.118450
 30
0.0
 10
122.123225
 20
61.931700
 30
0.0
 10
122.272084
 20
63.330700
 30
0.0
 10
122.324100
 20
65.598200
 30
0.0
 10
122.272084
 20
67.869653
 30
0.0
 10
122.123225
 20
69.278325
 30
0.0
 10
121.888303
 20
70.101434
 30
0.0
 10
121.578100
 20
70.616200
 30
0.0
  0
LWPOLYLINE
  5
108
100
AcDbEntity
  8
Bridge+Type+%5BK%5D
 62
7
100
AcDbPolyline
 90
33
 70
0
 10
125.277100
 20
57.512200
 30
0.0
 10
124.107241
 20
56.525481
 30
0.0
 10
122.800225
 20
55.807450
 30
0.0
 10
121.305147
 20
55.368794
 30
0.0
 10
119.571100
 20
55.220200
 30
0.0
 10
117.837053
 20
55.368794
 30
0.0
 10
116.341975
 20
55.807450
 30
0.0
 10
115.034959
 20
56.525481
 30
0.0
 10
113.865100
 20
57.512200
 30
0.0
 10
112.636147
 20
59.251653
 30
0.0
 10
112.027725
 20
61.211325
 30
0.0
 10
111.822241
 20
63.342934
 30
0.0
 10
111.802100
 20
65.598200
 30
0.0
 10
111.822241
 20
67.852872
 30
0.0
 10
112.027725
 20
69.984075
 30
0.0
 10
112.636147
 20
71.943341
 30
0.0
 10
113.865100
 20
73.682200
 30
0.0
 10
115.034959
 20
74.670653
 30
0.0
 10
116.341975
 20
75.389575
 30
0.0
 10
117.837053
 20
75.828559
 30
0.0
 10
119.571100
 20
75.977200
 30
0.0
 10
121.305147
 20
75.828559
 30
0.0
 10
122.800225
 20
75.389575
 30
0.0
 10
124.107241
 20
74.670653
 30
0.0
 10
125.277100
 20
73.682200
 30
0.0
 10
126.506631
 20
71.943341
 30
0.0
 10
127.115350
 20
69.984075
 30
0.0
 10
127.320944
 20
67.852872
 30
0.0
 10
127.341100
 20
65.598200
 30
0.0
 10
127.320944
 20
63.342934
 30
0.0
 10
127.115350
 20
61.211325
 30
0.0
 10
126.506631
 20
59.251653
 30
0.0
 10
125.277100
 20
57.512200
 30
0.0
  0
LWPOLYLINE
  5
109
100
AcDbEntity
  8
Bridge+Type+%5BK%5D
 62
7
100
AcDbPolyline
 90
41
 70
0
 10
138.183600
 20
55.219700
 30
0.0
 10
135.188584
 20
55.737559
 30
0.0
 10
132.736475
 20
57.212325
 30
0.0
 10
131.079928
 20
59.525778
 30
0.0
 10
130.471600
 20
62.559700
 30
0.0
 10
130.471600
 20
65.871200
 30
0.0
 10
130.471600
 20
69.182700
 30
0.0
 10
130.471600
 20
72.494200
 30
0.0
 10
130.471600
 20
75.805700
 30
0.0
 10
131.725850
 20
75.805700
 30
0.0
 10
132.980100
 20
75.805700
 30
0.0
 10
134.234350
 20
75.805700
 30
0.0
 10
135.488600
 20
75.805700
 30
0.0
 10
135.488600
 20
72.522450
 30
0.0
 10
135.488600
 20
69.239200
 30
0.0
 10
135.488600
 20
65.955950
 30
0.0
 10
135.488600
 20
62.672700
 30
0.0
 10
135.675834
 20
61.409731
 30
0.0
 10
136.212475
 20
60.473950
 30
0.0
 10
137.060928
 20
59.892544
 30
0.0
 10
138.183600
 20
59.692700
 30
0.0
 10
139.315334
 20
59.892544
 30
0.0
 10
140.183725
 20
60.473950
 30
0.0
 10
140.740303
 20
61.409731
 30
0.0
 10
140.936600
 20
62.672700
 30
0.0
 10
140.936600
 20
65.955950
 30
0.0
 10
140.936600
 20
69.239200
 30
0.0
 10
140.936600
 20
72.522450
 30
0.0
 10
140.936600
 20
75.805700
 30
0.0
 10
142.191100
 20
75.805700
 30
0.0
 10
143.445600
 20
75.805700
 30
0.0
 10
144.700100
 20
75.805700
 30
0.0
 10
145.954600
 20
75.805700
 30
0.0
 10
145.954600
 20
72.494200
 30
0.0
 10
145.954600
 20
69.182700
 30
0.0
 10
145.954600
 20
65.871200
 30
0.0
 10
145.954600
 20
62.559700
 30
0.0
 10
145.337053
 20
59.525778
 30
0.0
 10
143.660225
 20
57.212325
 30
0.0
 10
141.187834
 20
55.737559
 30
0.0
 10
138.183600
 20
55.219700
 30
0.0
  0
LWPOLYLINE
  5
10a
100
AcDbEntity
  8
Bridge+Type+%5BK%5D
 62
7
100
AcDbPolyline
 90
21
 70
0
 10
157.597700
 20
71.303700
 30
0.0
 10
156.888200
 20
71.303700
 30
0.0
 10
156.178700
 20
71.303700
 30
0.0
 10
155.469200
 20
71.303700
 30
0.0
 10
154.759700
 20
71.303700
 30
0.0
 10
154.759700
 20
70.271450
 30
0.0
 10
154.759700
 20
69.239200
 30
0.0
 10
154.759700
 20
68.206950
 30
0.0
 10
154.759700
 20
67.174700
 30
0.0
 10
155.469200
 20
67.174700
 30
0.0
 10
156.178700
 20
67.174700
 30
0.0
 10
156.888200
 20
67.174700
 30
0.0
 10
157.597700
 20
67.174700
 30
0.0
 10
158.519247
 20
67.348153
 30
0.0
 10
159.204075
 20
67.809325
 30
0.0
 10
159.630716
 20
68.469434
 30
0.0
 10
159.777700
 20
69.239700
 30
0.0
 10
159.630716
 20
70.009388
 30
0.0
 10
159.204075
 20
70.669200
 30
0.0
 10
158.519247
 20
71.130263
 30
0.0
 10
157.597700
 20
71.303700
 30
0.0
  0
LWPOLYLINE
  5
10b
100
AcDbEntity
  8
Bridge+Type+%5BK%5D
 62
7
100
AcDbPolyline
 90
41
 70
0
 10
160.063700
 20
55.391700
 30
0.0
 10
159.160700
 20
57.291200
 30
0.0
 10
158.257700
 20
59.190700
 30
0.0
 10
157.354700
 20
61.090200
 30
0.0
 10
156.451700
 20
62.989700
 30
0.0
 10
156.028700
 20
62.989700
 30
0.0
 10
155.605700
 20
62.989700
 30
0.0
 10
155.182700
 20
62.989700
 30
0.0
 10
154.759700
 20
62.989700
 30
0.0
 10
154.759700
 20
61.090200
 30
0.0
 10
154.759700
 20
59.190700
 30
0.0
 10
154.759700
 20
57.291200
 30
0.0
 10
154.759700
 20
55.391700
 30
0.0
 10
153.505450
 20
55.391700
 30
0.0
 10
152.251200
 20
55.391700
 30
0.0
 10
150.996950
 20
55.391700
 30
0.0
 10
149.742700
 20
55.391700
 30
0.0
 10
149.742700
 20
60.495200
 30
0.0
 10
149.742700
 20
65.598700
 30
0.0
 10
149.742700
 20
70.702200
 30
0.0
 10
149.742700
 20
75.805700
 30
0.0
 10
151.763700
 20
75.805700
 30
0.0
 10
153.784700
 20
75.805700
 30
0.0
 10
155.805700
 20
75.805700
 30
0.0
 10
157.826700
 20
75.805700
 30
0.0
 10
160.826966
 20
75.251559
 30
0.0
 10
163.009825
 20
73.780825
 30
0.0
 10
164.343122
 20
71.681028
 30
0.0
 10
164.794700
 20
69.239700
 30
0.0
 10
164.500856
 20
67.345700
 30
0.0
 10
163.733950
 20
65.831200
 30
0.0
 10
162.665919
 20
64.687950
 30
0.0
 10
161.468700
 20
63.907700
 30
0.0
 10
162.572450
 20
61.778700
 30
0.0
 10
163.676200
 20
59.649700
 30
0.0
 10
164.779950
 20
57.520700
 30
0.0
 10
165.883700
 20
55.391700
 30
0.0
 10
164.428700
 20
55.391700
 30
0.0
 10
162.973700
 20
55.391700
 30
0.0
 10
161.518700
 20
55.391700
 30
0.0
 10
160.063700
 20
55.391700
 30
0.0
  0
LWPOLYLINE
  5
10c
100
AcDbEntity
  8
Bridge+Type+%5BK%5D
 62
7
100
AcDbPolyline
 90
57
 70
0
 10
175.522500
 20
55.219700
 30
0.0
 10
173.840922
 20
55.368450
 30
0.0
 10
172.350125
 20
55.807450
 30
0.0
 10
171.026016
 20
56.525825
 30
0.0
 10
169.844500
 20
57.512700
 30
0.0
 10
168.615547
 20
59.251731
 30
0.0
 10
168.007125
 20
61.211450
 30
0.0
 10
167.801641
 20
63.343294
 30
0.0
 10
167.781500
 20
65.598700
 30
0.0
 10
167.801641
 20
67.852950
 30
0.0
 10
168.007125
 20
69.984200
 30
0.0
 10
168.615547
 20
71.943700
 30
0.0
 10
169.844500
 20
73.682700
 30
0.0
 10
171.026016
 20
74.670731
 30
0.0
 10
172.350125
 20
75.389700
 30
0.0
 10
173.840922
 20
75.828919
 30
0.0
 10
175.522500
 20
75.977700
 30
0.0
 10
178.259781
 20
75.571262
 30
0.0
 10
180.564500
 20
74.339450
 30
0.0
 10
182.283469
 20
72.263513
 30
0.0
 10
183.263500
 20
69.324700
 30
0.0
 10
181.987750
 20
69.324700
 30
0.0
 10
180.712000
 20
69.324700
 30
0.0
 10
179.436250
 20
69.324700
 30
0.0
 10
178.160500
 20
69.324700
 30
0.0
 10
177.853234
 20
70.149216
 30
0.0
 10
177.360625
 20
70.844825
 30
0.0
 10
176.615453
 20
71.325372
 30
0.0
 10
175.550500
 20
71.504700
 30
0.0
 10
174.906609
 20
71.438794
 30
0.0
 10
174.357125
 20
71.257200
 30
0.0
 10
173.909828
 20
70.984106
 30
0.0
 10
173.572500
 20
70.643700
 30
0.0
 10
173.257922
 20
70.125419
 30
0.0
 10
173.013375
 20
69.292700
 30
0.0
 10
172.854891
 20
67.874231
 30
0.0
 10
172.798500
 20
65.598700
 30
0.0
 10
172.854891
 20
63.321591
 30
0.0
 10
173.013375
 20
61.902575
 30
0.0
 10
173.257922
 20
61.069872
 30
0.0
 10
173.572500
 20
60.551700
 30
0.0
 10
173.909828
 20
60.212450
 30
0.0
 10
174.357125
 20
59.939950
 30
0.0
 10
174.906609
 20
59.758575
 30
0.0
 10
175.550500
 20
59.692700
 30
0.0
 10
176.615453
 20
59.871700
 30
0.0
 10
177.360625
 20
60.351450
 30
0.0
 10
177.853234
 20
61.046075
 30
0.0
 10
178.160500
 20
61.869700
 30
0.0
 10
179.436250
 20
61.869700
 30
0.0
 10
180.712000
 20
61.869700
 30
0.0
 10
181.987750
 20
61.869700
 30
0.0
 10
183.263500
 20
61.869700
 30
0.0
 10
182.283469
 20
58.932200
 30
0.0
 10
180.564500
 20
56.857200
 30
0.0
 10
178.259781
 20
55.625950
 30
0.0
 10
175.522500
 20
55.219700
 30
0.0
  0
LWPOLYLINE
  5
10d
100
AcDbEntity
  8
Bridge+Type+%5BK%5D
 62
7
100
AcDbPolyline
 90
49
 70
0
 10
185.905300
 20
55.391600
 30
0.0
 10
185.905300
 20
60.495100
 30
0.0
 10
185.905300
 20
65.598600
 30
0.0
 10
185.905300
 20
70.702100
 30
0.0
 10
185.905300
 20
75.805600
 30
0.0
 10
189.374550
 20
75.805600
 30
0.0
 10
192.843800
 20
75.805600
 30
0.0
 10
196.313050
 20
75.805600
 30
0.0
 10
199.782300
 20
75.805600
 30
0.0
 10
199.782300
 20
74.687350
 30
0.0
 10
199.782300
 20
73.569100
 30
0.0
 10
199.782300
 20
72.450850
 30
0.0
 10
199.782300
 20
71.332600
 30
0.0
 10
197.567550
 20
71.332600
 30
0.0
 10
195.352800
 20
71.332600
 30
0.0
 10
193.138050
 20
71.332600
 30
0.0
 10
190.923300
 20
71.332600
 30
0.0
 10
190.923300
 20
70.479600
 30
0.0
 10
190.923300
 20
69.626600
 30
0.0
 10
190.923300
 20
68.773600
 30
0.0
 10
190.923300
 20
67.920600
 30
0.0
 10
192.815550
 20
67.920600
 30
0.0
 10
194.707800
 20
67.920600
 30
0.0
 10
196.600050
 20
67.920600
 30
0.0
 10
198.492300
 20
67.920600
 30
0.0
 10
198.492300
 20
66.802600
 30
0.0
 10
198.492300
 20
65.684600
 30
0.0
 10
198.492300
 20
64.566600
 30
0.0
 10
198.492300
 20
63.448600
 30
0.0
 10
196.600050
 20
63.448600
 30
0.0
 10
194.707800
 20
63.448600
 30
0.0
 10
192.815550
 20
63.448600
 30
0.0
 10
190.923300
 20
63.448600
 30
0.0
 10
190.923300
 20
62.552600
 30
0.0
 10
190.923300
 20
61.656600
 30
0.0
 10
190.923300
 20
60.760600
 30
0.0
 10
190.923300
 20
59.864600
 30
0.0
 10
193.138050
 20
59.864600
 30
0.0
 10
195.352800
 20
59.864600
 30
0.0
 10
197.567550
 20
59.864600
 30
0.0
 10
199.782300
 20
59.864600
 30
0.0
 10
199.782300
 20
58.746350
 30
0.0
 10
199.782300
 20
57.628100
 30
0.0
 10
199.782300
 20
56.509850
 30
0.0
 10
199.782300
 20
55.391600
 30
0.0
 10
196.313050
 20
55.391600
 30
0.0
 10
192.843800
 20
55.391600
 30
0.0
 10
189.374550
 20
55.391600
 30
0.0
 10
185.905300
 20
55.391600
 30
0.0
  0
LWPOLYLINE
  5
10e
100
AcDbEntity
  8
Bridge+Type+%5BK%5D
 62
7
100
AcDbPolyline
 90
21
 70
0
 10
32.761200
 20
24.383800
 30
0.0
 10
31.178450
 20
24.383800
 30
0.0
 10
29.595700
 20
24.383800
 30
0.0
 10
28.012950
 20
24.383800
 30
0.0
 10
26.430200
 20
24.383800
 30
0.0
 10
26.430200
 20
22.707550
 30
0.0
 10
26.430200
 20
21.031300
 30
0.0
 10
26.430200
 20
19.355050
 30
0.0
 10
26.430200
 20
17.678800
 30
0.0
 10
28.012950
 20
17.678800
 30
0.0
 10
29.595700
 20
17.678800
 30
0.0
 10
31.178450
 20
17.678800
 30
0.0
 10
32.761200
 20
17.678800
 30
0.0
 10
34.384091
 20
17.980363
 30
0.0
 10
35.443825
 20
18.764550
 30
0.0
 10
36.020747
 20
19.850613
 30
0.0
 10
36.195200
 20
21.057800
 30
0.0
 10
36.020747
 20
22.256284
 30
0.0
 10
35.443825
 20
23.324175
 30
0.0
 10
34.384091
 20
24.090378
 30
0.0
 10
32.761200
 20
24.383800
 30
0.0
  0
LWPOLYLINE
  5
10f
100
AcDbEntity
  8
Bridge+Type+%5BK%5D
 62
7
100
AcDbPolyline
 90
21
 70
0
 10
32.278200
 20
39.029800
 30
0.0
 10
30.816200
 20
39.029800
 30
0.0
 10
29.354200
 20
39.029800
 30
0.0
 10
27.892200
 20
39.029800
 30
0.0
 10
26.430200
 20
39.029800
 30
0.0
 10
26.430200
 20
37.474300
 30
0.0
 10
26.430200
 20
35.918800
 30
0.0
 10
26.430200
 20
34.363300
 30
0.0
 10
26.430200
 20
32.807800
 30
0.0
 10
27.892200
 20
32.807800
 30
0.0
 10
29.354200
 20
32.807800
 30
0.0
 10
30.816200
 20
32.807800
 30
0.0
 10
32.278200
 20
32.807800
 30
0.0
 10
33.892653
 20
33.082675
 30
0.0
 10
34.933825
 20
33.800050
 30
0.0
 10
35.492184
 20
34.799050
 30
0.0
 10
35.658200
 20
35.918800
 30
0.0
 10
35.492184
 20
37.038550
 30
0.0
 10
34.933825
 20
38.037550
 30
0.0
 10
33.892653
 20
38.754925
 30
0.0
 10
32.278200
 20
39.029800
 30
0.0
  0
LWPOLYLINE
  5
110
100
AcDbEntity
  8
Bridge+Type+%5BK%5D
 62
7
100
AcDbPolyline
 90
29
 70
0
 10
33.673200
 20
9.254800
 30
0.0
 10
29.515450
 20
9.254800
 30
0.0
 10
25.357700
 20
9.254800
 30
0.0
 10
21.199950
 20
9.254800
 30
0.0
 10
17.042200
 20
9.254800
 30
0.0
 10
17.042200
 20
18.804550
 30
0.0
 10
17.042200
 20
28.354300
 30
0.0
 10
17.042200
 20
37.904050
 30
0.0
 10
17.042200
 20
47.453800
 30
0.0
 10
20.998700
 20
47.453800
 30
0.0
 10
24.955200
 20
47.453800
 30
0.0
 10
28.911700
 20
47.453800
 30
0.0
 10
32.868200
 20
47.453800
 30
0.0
 10
38.121278
 20
46.654909
 30
0.0
 10
41.935575
 20
44.402425
 30
0.0
 10
44.260934
 20
40.912628
 30
0.0
 10
45.047200
 20
36.401800
 30
0.0
 10
44.559372
 20
33.499503
 30
0.0
 10
43.397575
 20
31.291425
 30
0.0
 10
42.014341
 20
29.747284
 30
0.0
 10
40.862200
 20
28.836800
 30
0.0
 10
42.256450
 20
27.885081
 30
0.0
 10
43.806700
 20
26.329800
 30
0.0
 10
45.065200
 20
23.949519
 30
0.0
 10
45.584200
 20
20.522800
 30
0.0
 10
44.681325
 20
15.683753
 30
0.0
 10
42.183950
 20
12.152425
 30
0.0
 10
38.408950
 20
9.989284
 30
0.0
 10
33.673200
 20
9.254800
 30
0.0
  0
LWPOLYLINE
  5
111
100
AcDbEntity
  8
Bridge+Type+%5BK%5D
 62
7
100
AcDbPolyline
 90
21
 70
0
 10
66.778300
 20
39.030300
 30
0.0
 10
65.450300
 20
39.030300
 30
0.0
 10
64.122300
 20
39.030300
 30
0.0
 10
62.794300
 20
39.030300
 30
0.0
 10
61.466300
 20
39.030300
 30
0.0
 10
61.466300
 20
37.099050
 30
0.0
 10
61.466300
 20
35.167800
 30
0.0
 10
61.466300
 20
33.236550
 30
0.0
 10
61.466300
 20
31.305300
 30
0.0
 10
62.794300
 20
31.305300
 30
0.0
 10
64.122300
 20
31.305300
 30
0.0
 10
65.450300
 20
31.305300
 30
0.0
 10
66.778300
 20
31.305300
 30
0.0
 10
68.501659
 20
31.629628
 30
0.0
 10
69.782425
 20
32.492175
 30
0.0
 10
70.580378
 20
33.727284
 30
0.0
 10
70.855300
 20
35.169300
 30
0.0
 10
70.580378
 20
36.609581
 30
0.0
 10
69.782425
 20
37.843800
 30
0.0
 10
68.501659
 20
38.706019
 30
0.0
 10
66.778300
 20
39.030300
 30
0.0
  0
LWPOLYLINE
  5
112
100
AcDbEntity
  8
Bridge+Type+%5BK%5D
 62
7
100
AcDbPolyline
 90
41
 70
0
 10
71.392300
 20
9.255300
 30
0.0
 10
69.702300
 20
12.809300
 30
0.0
 10
68.012300
 20
16.363300
 30
0.0
 10
66.322300
 20
19.917300
 30
0.0
 10
64.632300
 20
23.471300
 30
0.0
 10
63.840800
 20
23.471300
 30
0.0
 10
63.049300
 20
23.471300
 30
0.0
 10
62.257800
 20
23.471300
 30
0.0
 10
61.466300
 20
23.471300
 30
0.0
 10
61.466300
 20
19.917300
 30
0.0
 10
61.466300
 20
16.363300
 30
0.0
 10
61.466300
 20
12.809300
 30
0.0
 10
61.466300
 20
9.255300
 30
0.0
 10
59.119300
 20
9.255300
 30
0.0
 10
56.772300
 20
9.255300
 30
0.0
 10
54.425300
 20
9.255300
 30
0.0
 10
52.078300
 20
9.255300
 30
0.0
 10
52.078300
 20
18.805050
 30
0.0
 10
52.078300
 20
28.354800
 30
0.0
 10
52.078300
 20
37.904550
 30
0.0
 10
52.078300
 20
47.454300
 30
0.0
 10
55.860550
 20
47.454300
 30
0.0
 10
59.642800
 20
47.454300
 30
0.0
 10
63.425050
 20
47.454300
 30
0.0
 10
67.207300
 20
47.454300
 30
0.0
 10
72.820566
 20
46.417191
 30
0.0
 10
76.904675
 20
43.664925
 30
0.0
 10
79.399347
 20
39.736097
 30
0.0
 10
80.244300
 20
35.169300
 30
0.0
 10
79.694394
 20
31.625409
 30
0.0
 10
78.259300
 20
28.790925
 30
0.0
 10
76.260956
 20
26.650378
 30
0.0
 10
74.021300
 20
25.188300
 30
0.0
 10
76.086800
 20
21.205050
 30
0.0
 10
78.152300
 20
17.221800
 30
0.0
 10
80.217800
 20
13.238550
 30
0.0
 10
82.283300
 20
9.255300
 30
0.0
 10
79.560550
 20
9.255300
 30
0.0
 10
76.837800
 20
9.255300
 30
0.0
 10
74.115050
 20
9.255300
 30
0.0
 10
71.392300
 20
9.255300
 30
0.0
  0
LWPOLYLINE
  5
113
100
AcDbEntity
  8
Bridge+Type+%5BK%5D
 62
7
100
AcDbPolyline
 90
17
 70
0
 10
87.061000
 20
47.454000
 30
0.0
 10
89.408250
 20
47.454000
 30
0.0
 10
91.755500
 20
47.454000
 30
0.0
 10
94.102750
 20
47.454000
 30
0.0
 10
96.450000
 20
47.454000
 30
0.0
 10
96.450000
 20
37.904250
 30
0.0
 10
96.450000
 20
28.354500
 30
0.0
 10
96.450000
 20
18.804750
 30
0.0
 10
96.450000
 20
9.255000
 30
0.0
 10
94.102750
 20
9.255000
 30
0.0
 10
91.755500
 20
9.255000
 30
0.0
 10
89.408250
 20
9.255000
 30
0.0
 10
87.061000
 20
9.255000
 30
0.0
 10
87.061000
 20
18.804750
 30
0.0
 10
87.061000
 20
28.354500
 30
0.0
 10
87.061000
 20
37.904250
 30
0.0
 10
87.061000
 20
47.454000
 30
0.0
  0
LWPOLYLINE
  5
114
100
AcDbEntity
  8
Bridge+Type+%5BK%5D
 62
7
100
AcDbPolyline
 90
29
 70
0
 10
122.202100
 20
36.938500
 30
0.0
 10
121.467928
 20
37.816766
 30
0.0
 10
120.512225
 20
38.494125
 30
0.0
 10
119.274709
 20
38.930172
 30
0.0
 10
117.695100
 20
39.084500
 30
0.0
 10
116.662350
 20
39.084500
 30
0.0
 10
115.629600
 20
39.084500
 30
0.0
 10
114.596850
 20
39.084500
 30
0.0
 10
113.564100
 20
39.084500
 30
0.0
 10
113.564100
 20
33.719500
 30
0.0
 10
113.564100
 20
28.354500
 30
0.0
 10
113.564100
 20
22.989500
 30
0.0
 10
113.564100
 20
17.624500
 30
0.0
 10
114.596850
 20
17.624500
 30
0.0
 10
115.629600
 20
17.624500
 30
0.0
 10
116.662350
 20
17.624500
 30
0.0
 10
117.695100
 20
17.624500
 30
0.0
 10
119.274709
 20
17.778828
 30
0.0
 10
120.512225
 20
18.214875
 30
0.0
 10
121.467928
 20
18.892234
 30
0.0
 10
122.202100
 20
19.770500
 30
0.0
 10
122.678303
 20
20.651063
 30
0.0
 10
122.993725
 20
22.030000
 30
0.0
 10
123.168334
 20
24.425188
 30
0.0
 10
123.222100
 20
28.354500
 30
0.0
 10
123.168334
 20
32.261031
 30
0.0
 10
122.993725
 20
34.658750
 30
0.0
 10
122.678303
 20
36.050344
 30
0.0
 10
122.202100
 20
36.938500
 30
0.0
  0
LWPOLYLINE
  5
115
100
AcDbEntity
  8
Bridge+Type+%5BK%5D
 62
7
100
AcDbPolyline
 90
29
 70
0
 10
128.640100
 20
13.010500
 30
0.0
 10
126.480178
 20
11.314516
 30
0.0
 10
123.992975
 20
10.146625
 30
0.0
 10
121.254334
 20
9.471672
 30
0.0
 10
118.340100
 20
9.254500
 30
0.0
 10
114.799100
 20
9.254500
 30
0.0
 10
111.258100
 20
9.254500
 30
0.0
 10
107.717100
 20
9.254500
 30
0.0
 10
104.176100
 20
9.254500
 30
0.0
 10
104.176100
 20
18.804500
 30
0.0
 10
104.176100
 20
28.354500
 30
0.0
 10
104.176100
 20
37.904500
 30
0.0
 10
104.176100
 20
47.454500
 30
0.0
 10
107.717100
 20
47.454500
 30
0.0
 10
111.258100
 20
47.454500
 30
0.0
 10
114.799100
 20
47.454500
 30
0.0
 10
118.340100
 20
47.454500
 30
0.0
 10
121.254334
 20
47.237328
 30
0.0
 10
123.992975
 20
46.562375
 30
0.0
 10
126.480178
 20
45.394484
 30
0.0
 10
128.640100
 20
43.698500
 30
0.0
 10
131.139022
 20
40.267547
 30
0.0
 10
132.294975
 20
36.610375
 30
0.0
 10
132.615991
 20
32.661266
 30
0.0
 10
132.610100
 20
28.354500
 30
0.0
 10
132.616000
 20
24.048578
 30
0.0
 10
132.294984
 20
20.099375
 30
0.0
 10
131.139022
 20
16.441734
 30
0.0
 10
128.640100
 20
13.010500
 30
0.0
  0
LWPOLYLINE
  5
116
100
AcDbEntity
  8
Bridge+Type+%5BK%5D
 62
7
100
AcDbPolyline
 90
81
 70
0
 10
163.460900
 20
13.225600
 30
0.0
 10
160.933744
 20
11.128459
 30
0.0
 10
158.250400
 20
9.811225
 30
0.0
 10
155.396056
 20
9.127928
 30
0.0
 10
152.355900
 20
8.932600
 30
0.0
 10
149.209353
 20
9.211178
 30
0.0
 10
146.420275
 20
10.033225
 30
0.0
 10
143.943009
 20
11.378209
 30
0.0
 10
141.731900
 20
13.225600
 30
0.0
 10
139.431259
 20
16.479522
 30
0.0
 10
138.292275
 20
20.146225
 30
0.0
 10
137.907603
 20
24.134866
 30
0.0
 10
137.869903
 20
28.354600
 30
0.0
 10
137.907603
 20
32.574194
 30
0.0
 10
138.292275
 20
36.562600
 30
0.0
 10
139.431259
 20
40.229256
 30
0.0
 10
141.731900
 20
43.483600
 30
0.0
 10
143.920369
 20
45.331834
 30
0.0
 10
146.359900
 20
46.676725
 30
0.0
 10
149.141431
 20
47.498303
 30
0.0
 10
152.355900
 20
47.776600
 30
0.0
 10
158.699947
 20
46.680866
 30
0.0
 10
163.152775
 20
43.799475
 30
0.0
 10
165.935916
 20
39.741147
 30
0.0
 10
167.270900
 20
35.114600
 30
0.0
 10
164.910150
 20
35.114600
 30
0.0
 10
162.549400
 20
35.114600
 30
0.0
 10
160.188650
 20
35.114600
 30
0.0
 10
157.827900
 20
35.114600
 30
0.0
 10
157.108603
 20
37.007131
 30
0.0
 10
156.017025
 20
38.347100
 30
0.0
 10
154.462884
 20
39.144069
 30
0.0
 10
152.355900
 20
39.407600
 30
0.0
 10
151.151244
 20
39.275850
 30
0.0
 10
150.122650
 20
38.917600
 30
0.0
 10
149.284931
 20
38.388350
 30
0.0
 10
148.652900
 20
37.743600
 30
0.0
 10
148.073119
 20
36.781975
 30
0.0
 10
147.634150
 20
35.242100
 30
0.0
 10
147.356056
 20
32.605725
 30
0.0
 10
147.258900
 20
28.354600
 30
0.0
 10
147.356056
 20
24.095069
 30
0.0
 10
147.634150
 20
21.440350
 30
0.0
 10
148.073119
 20
19.882506
 30
0.0
 10
148.652900
 20
18.913600
 30
0.0
 10
149.284931
 20
18.276866
 30
0.0
 10
150.122650
 20
17.766225
 30
0.0
 10
151.151244
 20
17.426772
 30
0.0
 10
152.355900
 20
17.303600
 30
0.0
 10
153.726416
 20
17.410038
 30
0.0
 10
154.870525
 20
17.712600
 30
0.0
 10
155.803322
 20
18.186163
 30
0.0
 10
156.539900
 20
18.805600
 30
0.0
 10
157.218822
 20
19.691241
 30
0.0
 10
157.666275
 20
20.702975
 30
0.0
 10
157.912541
 20
21.785022
 30
0.0
 10
157.987900
 20
22.881600
 30
0.0
 10
157.987900
 20
23.015850
 30
0.0
 10
157.987900
 20
23.150100
 30
0.0
 10
157.987900
 20
23.284350
 30
0.0
 10
157.987900
 20
23.418600
 30
0.0
 10
156.579900
 20
23.418600
 30
0.0
 10
155.171900
 20
23.418600
 30
0.0
 10
153.763900
 20
23.418600
 30
0.0
 10
152.355900
 20
23.418600
 30
0.0
 10
152.355900
 20
25.376600
 30
0.0
 10
152.355900
 20
27.334600
 30
0.0
 10
152.355900
 20
29.292600
 30
0.0
 10
152.355900
 20
31.250600
 30
0.0
 10
156.097900
 20
31.250600
 30
0.0
 10
159.839900
 20
31.250600
 30
0.0
 10
163.581900
 20
31.250600
 30
0.0
 10
167.323900
 20
31.250600
 30
0.0
 10
167.323900
 20
29.923100
 30
0.0
 10
167.323900
 20
28.595600
 30
0.0
 10
167.323900
 20
27.268100
 30
0.0
 10
167.323900
 20
25.940600
 30
0.0
 10
167.127697
 20
21.765897
 30
0.0
 10
166.478775
 20
18.375975
 30
0.0
 10
165.286666
 20
15.589616
 30
0.0
 10
163.460900
 20
13.225600
 30
0.0
  0
LWPOLYLINE
  5
117
100
AcDbEntity
  8
Bridge+Type+%5BK%5D
 62
7
100
AcDbPolyline
 90
49
 70
0
 10
173.818400
 20
9.254900
 30
0.0
 10
173.818400
 20
18.804650
 30
0.0
 10
173.818400
 20
28.354400
 30
0.0
 10
173.818400
 20
37.904150
 30
0.0
 10
173.818400
 20
47.453900
 30
0.0
 10
180.309900
 20
47.453900
 30
0.0
 10
186.801400
 20
47.453900
 30
0.0
 10
193.292900
 20
47.453900
 30
0.0
 10
199.784400
 20
47.453900
 30
0.0
 10
199.784400
 20
45.361650
 30
0.0
 10
199.784400
 20
43.269400
 30
0.0
 10
199.784400
 20
41.177150
 30
0.0
 10
199.784400
 20
39.084900
 30
0.0
 10
195.640150
 20
39.084900
 30
0.0
 10
191.495900
 20
39.084900
 30
0.0
 10
187.351650
 20
39.084900
 30
0.0
 10
183.207400
 20
39.084900
 30
0.0
 10
183.207400
 20
37.488650
 30
0.0
 10
183.207400
 20
35.892400
 30
0.0
 10
183.207400
 20
34.296150
 30
0.0
 10
183.207400
 20
32.699900
 30
0.0
 10
186.748150
 20
32.699900
 30
0.0
 10
190.288900
 20
32.699900
 30
0.0
 10
193.829650
 20
32.699900
 30
0.0
 10
197.370400
 20
32.699900
 30
0.0
 10
197.370400
 20
30.607650
 30
0.0
 10
197.370400
 20
28.515400
 30
0.0
 10
197.370400
 20
26.423150
 30
0.0
 10
197.370400
 20
24.330900
 30
0.0
 10
193.829650
 20
24.330900
 30
0.0
 10
190.288900
 20
24.330900
 30
0.0
 10
186.748150
 20
24.330900
 30
0.0
 10
183.207400
 20
24.330900
 30
0.0
 10
183.207400
 20
22.654150
 30
0.0
 10
183.207400
 20
20.977400
 30
0.0
 10
183.207400
 20
19.300650
 30
0.0
 10
183.207400
 20
17.623900
 30
0.0
 10
187.351650
 20
17.623900
 30
0.0
 10
191.495900
 20
17.623900
 30
0.0
 10
195.640150
 20
17.623900
 30
0.0
 10
199.784400
 20
17.623900
 30
0.0
 10
199.784400
 20
15.531650
 30
0.0
 10
199.784400
 20
13.439400
 30
0.0
 10
199.784400
 20
11.347150
 30
0.0
 10
199.784400
 20
9.254900
 30
0.0
 10
193.292900
 20
9.254900
 30
0.0
 10
186.801400
 20
9.254900
 30
0.0
 10
180.309900
 20
9.254900
 30
0.0
 10
173.818400
 20
9.254900
 30
0.0
  0
ENDSEC
  0
SECTION
  2
OBJECTS
  0
DICTIONARY
  5
C
330
0
100
AcDbDictionary
  3
ACAD_GROUP
350
D
  3
ACAD_MLINESTYLE
350
17
  0
DICTIONARY
  5
D
330
C
100
AcDbDictionary
  0
DICTIONARY
  5
1A
330
C
100
AcDbDictionary
  0
DICTIONARY
  5
17
330
C
100
AcDbDictionary
  3
STANDARD
350
18
  0
DICTIONARY
  5
19
330
C
100
AcDbDictionary
  0
ENDSEC
  0
EOF
